<mxfile host="Electron" modified="2024-04-17T19:06:08.918Z" agent="Mozilla/5.0 (Windows NT 10.0; Win64; x64) AppleWebKit/537.36 (KHTML, like Gecko) draw.io/22.1.21 Chrome/120.0.6099.109 Electron/28.1.0 Safari/537.36" etag="K6uZCnxZ6wgot-kcxBOJ" version="22.1.21" type="device">
  <diagram name="Page-1" id="6f7wbPanEzozHGWUEkWh">
    <mxGraphModel dx="2625" dy="1673" grid="1" gridSize="10" guides="1" tooltips="1" connect="1" arrows="1" fold="1" page="1" pageScale="1" pageWidth="2000" pageHeight="1125" math="0" shadow="0">
      <root>
        <mxCell id="0" />
        <mxCell id="1" parent="0" />
        <mxCell id="Le0i1boc2uagi5iD-MZC-1" value="" style="group;fontSize=14;" parent="1" vertex="1" connectable="0">
          <mxGeometry x="497" y="20" width="1006.43" height="1085" as="geometry" />
        </mxCell>
        <mxCell id="iGU3sP1IknaeFaQq-wKz-2" value="&lt;font style=&quot;font-size: 14px;&quot;&gt;srtat&lt;/font&gt;" style="ellipse;whiteSpace=wrap;html=1;fontSize=14;" parent="Le0i1boc2uagi5iD-MZC-1" vertex="1">
          <mxGeometry x="162.1262701363073" width="124.71251548946715" height="49.885057471264375" as="geometry" />
        </mxCell>
        <mxCell id="iGU3sP1IknaeFaQq-wKz-3" value="i, x_sum, y_sum, x2_sum, y2_sum, xy_sum, x_sqrt, y_sqrt, r = 0;&lt;br style=&quot;font-size: 14px;&quot;&gt;x, y = [];" style="whiteSpace=wrap;html=1;fontSize=14;" parent="Le0i1boc2uagi5iD-MZC-1" vertex="1">
          <mxGeometry y="99.77011494252875" width="448.96505576208176" height="74.82758620689656" as="geometry" />
        </mxCell>
        <mxCell id="iGU3sP1IknaeFaQq-wKz-4" value="" style="edgeStyle=orthogonalEdgeStyle;rounded=0;orthogonalLoop=1;jettySize=auto;html=1;fontSize=14;" parent="Le0i1boc2uagi5iD-MZC-1" source="iGU3sP1IknaeFaQq-wKz-2" target="iGU3sP1IknaeFaQq-wKz-3" edge="1">
          <mxGeometry relative="1" as="geometry" />
        </mxCell>
        <mxCell id="iGU3sP1IknaeFaQq-wKz-11" value="" style="group;fontSize=14;" parent="Le0i1boc2uagi5iD-MZC-1" vertex="1" connectable="0">
          <mxGeometry x="143.41939281288722" y="224.48275862068968" width="162.1262701363073" height="49.885057471264375" as="geometry" />
        </mxCell>
        <mxCell id="iGU3sP1IknaeFaQq-wKz-7" value="&lt;font style=&quot;font-size: 14px;&quot;&gt;x, y&lt;/font&gt;" style="shape=parallelogram;perimeter=parallelogramPerimeter;whiteSpace=wrap;html=1;fixedSize=1;fontSize=14;" parent="iGU3sP1IknaeFaQq-wKz-11" vertex="1">
          <mxGeometry width="162.1262701363073" height="49.885057471264375" as="geometry" />
        </mxCell>
        <mxCell id="iGU3sP1IknaeFaQq-wKz-10" value="&lt;font style=&quot;font-size: 14px;&quot;&gt;read&lt;/font&gt;" style="whiteSpace=wrap;html=1;strokeWidth=0.56;fontSize=14;" parent="iGU3sP1IknaeFaQq-wKz-11" vertex="1">
          <mxGeometry x="24.942503097893432" width="37.41375464684015" height="24.942528735632187" as="geometry" />
        </mxCell>
        <mxCell id="iGU3sP1IknaeFaQq-wKz-8" value="" style="edgeStyle=orthogonalEdgeStyle;rounded=0;orthogonalLoop=1;jettySize=auto;html=1;fontSize=14;" parent="Le0i1boc2uagi5iD-MZC-1" source="iGU3sP1IknaeFaQq-wKz-3" target="iGU3sP1IknaeFaQq-wKz-7" edge="1">
          <mxGeometry relative="1" as="geometry" />
        </mxCell>
        <mxCell id="iGU3sP1IknaeFaQq-wKz-12" value="n = len(x)" style="whiteSpace=wrap;html=1;fontSize=14;" parent="Le0i1boc2uagi5iD-MZC-1" vertex="1">
          <mxGeometry x="149.6550185873606" y="324.25287356321843" width="149.6550185873606" height="74.82758620689656" as="geometry" />
        </mxCell>
        <mxCell id="iGU3sP1IknaeFaQq-wKz-13" value="" style="edgeStyle=orthogonalEdgeStyle;rounded=0;orthogonalLoop=1;jettySize=auto;html=1;fontSize=14;" parent="Le0i1boc2uagi5iD-MZC-1" source="iGU3sP1IknaeFaQq-wKz-7" target="iGU3sP1IknaeFaQq-wKz-12" edge="1">
          <mxGeometry relative="1" as="geometry" />
        </mxCell>
        <mxCell id="iGU3sP1IknaeFaQq-wKz-17" value="i &amp;lt; n" style="rhombus;whiteSpace=wrap;html=1;fontSize=14;" parent="Le0i1boc2uagi5iD-MZC-1" vertex="1">
          <mxGeometry x="174.597521685254" y="448.96551724137936" width="99.77001239157373" height="99.77011494252875" as="geometry" />
        </mxCell>
        <mxCell id="iGU3sP1IknaeFaQq-wKz-18" value="" style="edgeStyle=orthogonalEdgeStyle;rounded=0;orthogonalLoop=1;jettySize=auto;html=1;fontSize=14;" parent="Le0i1boc2uagi5iD-MZC-1" source="iGU3sP1IknaeFaQq-wKz-12" target="iGU3sP1IknaeFaQq-wKz-17" edge="1">
          <mxGeometry relative="1" as="geometry" />
        </mxCell>
        <mxCell id="iGU3sP1IknaeFaQq-wKz-19" value="x_sum += x[i]" style="whiteSpace=wrap;html=1;fontSize=14;" parent="Le0i1boc2uagi5iD-MZC-1" vertex="1">
          <mxGeometry x="149.6550185873606" y="586.1494252873564" width="149.6550185873606" height="74.82758620689656" as="geometry" />
        </mxCell>
        <mxCell id="iGU3sP1IknaeFaQq-wKz-20" value="" style="edgeStyle=orthogonalEdgeStyle;rounded=0;orthogonalLoop=1;jettySize=auto;html=1;fontSize=14;" parent="Le0i1boc2uagi5iD-MZC-1" source="iGU3sP1IknaeFaQq-wKz-17" target="iGU3sP1IknaeFaQq-wKz-19" edge="1">
          <mxGeometry relative="1" as="geometry" />
        </mxCell>
        <mxCell id="iGU3sP1IknaeFaQq-wKz-26" value="true" style="edgeLabel;html=1;align=center;verticalAlign=middle;resizable=0;points=[];fontSize=14;" parent="iGU3sP1IknaeFaQq-wKz-20" vertex="1" connectable="0">
          <mxGeometry x="-0.5033" relative="1" as="geometry">
            <mxPoint as="offset" />
          </mxGeometry>
        </mxCell>
        <mxCell id="iGU3sP1IknaeFaQq-wKz-23" style="edgeStyle=orthogonalEdgeStyle;rounded=0;orthogonalLoop=1;jettySize=auto;html=1;fontSize=14;" parent="Le0i1boc2uagi5iD-MZC-1" source="iGU3sP1IknaeFaQq-wKz-21" edge="1">
          <mxGeometry relative="1" as="geometry">
            <mxPoint x="224.48252788104088" y="424.02298850574715" as="targetPoint" />
            <Array as="points">
              <mxPoint x="392.84442379182155" y="424.02298850574715" />
            </Array>
          </mxGeometry>
        </mxCell>
        <mxCell id="iGU3sP1IknaeFaQq-wKz-21" value="i+ = 1" style="whiteSpace=wrap;html=1;fontSize=14;" parent="Le0i1boc2uagi5iD-MZC-1" vertex="1">
          <mxGeometry x="361.66629491945474" y="486.3793103448276" width="62.356257744733576" height="62.356321839080465" as="geometry" />
        </mxCell>
        <mxCell id="iGU3sP1IknaeFaQq-wKz-39" value="y_sum += y[i]" style="whiteSpace=wrap;html=1;fontSize=14;" parent="Le0i1boc2uagi5iD-MZC-1" vertex="1">
          <mxGeometry x="149.6550185873606" y="685.9195402298851" width="149.6550185873606" height="74.82758620689656" as="geometry" />
        </mxCell>
        <mxCell id="iGU3sP1IknaeFaQq-wKz-40" style="edgeStyle=orthogonalEdgeStyle;rounded=0;orthogonalLoop=1;jettySize=auto;html=1;entryX=0.5;entryY=0;entryDx=0;entryDy=0;fontSize=14;" parent="Le0i1boc2uagi5iD-MZC-1" source="iGU3sP1IknaeFaQq-wKz-19" target="iGU3sP1IknaeFaQq-wKz-39" edge="1">
          <mxGeometry relative="1" as="geometry" />
        </mxCell>
        <mxCell id="iGU3sP1IknaeFaQq-wKz-43" value="x2_sum += x[i]^2" style="whiteSpace=wrap;html=1;fontSize=14;" parent="Le0i1boc2uagi5iD-MZC-1" vertex="1">
          <mxGeometry x="149.6550185873606" y="785.6896551724138" width="149.6550185873606" height="74.82758620689656" as="geometry" />
        </mxCell>
        <mxCell id="iGU3sP1IknaeFaQq-wKz-44" style="edgeStyle=orthogonalEdgeStyle;rounded=0;orthogonalLoop=1;jettySize=auto;html=1;entryX=0.5;entryY=0;entryDx=0;entryDy=0;fontSize=14;" parent="Le0i1boc2uagi5iD-MZC-1" source="iGU3sP1IknaeFaQq-wKz-39" target="iGU3sP1IknaeFaQq-wKz-43" edge="1">
          <mxGeometry relative="1" as="geometry" />
        </mxCell>
        <mxCell id="iGU3sP1IknaeFaQq-wKz-45" value="y2_sum += y[i]^2" style="whiteSpace=wrap;html=1;fontSize=14;" parent="Le0i1boc2uagi5iD-MZC-1" vertex="1">
          <mxGeometry x="149.6550185873606" y="885.4597701149426" width="149.6550185873606" height="74.82758620689656" as="geometry" />
        </mxCell>
        <mxCell id="iGU3sP1IknaeFaQq-wKz-46" value="" style="edgeStyle=orthogonalEdgeStyle;rounded=0;orthogonalLoop=1;jettySize=auto;html=1;fontSize=14;" parent="Le0i1boc2uagi5iD-MZC-1" source="iGU3sP1IknaeFaQq-wKz-43" target="iGU3sP1IknaeFaQq-wKz-45" edge="1">
          <mxGeometry relative="1" as="geometry" />
        </mxCell>
        <mxCell id="iGU3sP1IknaeFaQq-wKz-47" value="xy_sum += x[i] * y[i]" style="whiteSpace=wrap;html=1;fontSize=14;" parent="Le0i1boc2uagi5iD-MZC-1" vertex="1">
          <mxGeometry x="149.6550185873606" y="985.2298850574713" width="149.6550185873606" height="74.82758620689656" as="geometry" />
        </mxCell>
        <mxCell id="iGU3sP1IknaeFaQq-wKz-22" value="" style="edgeStyle=orthogonalEdgeStyle;rounded=0;orthogonalLoop=1;jettySize=auto;html=1;entryX=0.5;entryY=1;entryDx=0;entryDy=0;exitX=1;exitY=0.5;exitDx=0;exitDy=0;fontSize=14;" parent="Le0i1boc2uagi5iD-MZC-1" source="iGU3sP1IknaeFaQq-wKz-47" target="iGU3sP1IknaeFaQq-wKz-21" edge="1">
          <mxGeometry relative="1" as="geometry" />
        </mxCell>
        <mxCell id="iGU3sP1IknaeFaQq-wKz-49" style="edgeStyle=orthogonalEdgeStyle;rounded=0;orthogonalLoop=1;jettySize=auto;html=1;fontSize=14;" parent="Le0i1boc2uagi5iD-MZC-1" source="iGU3sP1IknaeFaQq-wKz-45" target="iGU3sP1IknaeFaQq-wKz-47" edge="1">
          <mxGeometry relative="1" as="geometry" />
        </mxCell>
        <mxCell id="iGU3sP1IknaeFaQq-wKz-53" value="x_sqrt = (n * x2_sum - (x_sum)^2)^0.5" style="whiteSpace=wrap;html=1;fontSize=14;" parent="Le0i1boc2uagi5iD-MZC-1" vertex="1">
          <mxGeometry x="657.2349566294919" y="379.12643678160924" width="274.3675340768277" height="74.82758620689656" as="geometry" />
        </mxCell>
        <mxCell id="iGU3sP1IknaeFaQq-wKz-27" style="edgeStyle=orthogonalEdgeStyle;rounded=0;orthogonalLoop=1;jettySize=auto;html=1;exitX=0;exitY=0.5;exitDx=0;exitDy=0;entryX=0.5;entryY=0;entryDx=0;entryDy=0;fontSize=14;" parent="Le0i1boc2uagi5iD-MZC-1" source="iGU3sP1IknaeFaQq-wKz-17" target="iGU3sP1IknaeFaQq-wKz-53" edge="1">
          <mxGeometry relative="1" as="geometry">
            <mxPoint x="794.4187236679057" y="229.4712643678161" as="targetPoint" />
            <Array as="points">
              <mxPoint x="49.885006195786865" y="498.8505747126437" />
              <mxPoint x="49.885006195786865" y="1085" />
              <mxPoint x="486.37881040892194" y="1085" />
              <mxPoint x="486.37881040892194" y="43.64942528735632" />
              <mxPoint x="794.4187236679057" y="43.64942528735632" />
            </Array>
          </mxGeometry>
        </mxCell>
        <mxCell id="gX1hSsLA_Lhq6vtlzFD9-2" value="false" style="edgeLabel;html=1;align=center;verticalAlign=middle;resizable=0;points=[];" parent="iGU3sP1IknaeFaQq-wKz-27" vertex="1" connectable="0">
          <mxGeometry x="-0.7063" y="-3" relative="1" as="geometry">
            <mxPoint as="offset" />
          </mxGeometry>
        </mxCell>
        <mxCell id="iGU3sP1IknaeFaQq-wKz-56" value="y_sqrt = (n * y2_sum - (y_sum)^2)^0.5" style="whiteSpace=wrap;html=1;fontSize=14;" parent="Le0i1boc2uagi5iD-MZC-1" vertex="1">
          <mxGeometry x="657.2349566294919" y="503.8390804597702" width="274.3675340768277" height="74.82758620689656" as="geometry" />
        </mxCell>
        <mxCell id="iGU3sP1IknaeFaQq-wKz-57" value="" style="edgeStyle=orthogonalEdgeStyle;rounded=0;orthogonalLoop=1;jettySize=auto;html=1;fontSize=14;" parent="Le0i1boc2uagi5iD-MZC-1" source="iGU3sP1IknaeFaQq-wKz-53" target="iGU3sP1IknaeFaQq-wKz-56" edge="1">
          <mxGeometry relative="1" as="geometry" />
        </mxCell>
        <mxCell id="iGU3sP1IknaeFaQq-wKz-64" value="r = (n * xy_sum - x_sum * y_sum) / (x_sqrt * y_sqrt)" style="whiteSpace=wrap;html=1;fontSize=14;" parent="Le0i1boc2uagi5iD-MZC-1" vertex="1">
          <mxGeometry x="582.4074473358116" y="628.551724137931" width="424.0225526641883" height="74.82758620689656" as="geometry" />
        </mxCell>
        <mxCell id="iGU3sP1IknaeFaQq-wKz-78" value="" style="edgeStyle=orthogonalEdgeStyle;rounded=0;orthogonalLoop=1;jettySize=auto;html=1;fontSize=14;" parent="Le0i1boc2uagi5iD-MZC-1" source="iGU3sP1IknaeFaQq-wKz-56" target="iGU3sP1IknaeFaQq-wKz-64" edge="1">
          <mxGeometry relative="1" as="geometry" />
        </mxCell>
        <mxCell id="iGU3sP1IknaeFaQq-wKz-72" value="" style="group;fontSize=14;" parent="Le0i1boc2uagi5iD-MZC-1" vertex="1" connectable="0">
          <mxGeometry x="713.3555885997522" y="753.264367816092" width="162.1262701363073" height="49.885057471264375" as="geometry" />
        </mxCell>
        <mxCell id="iGU3sP1IknaeFaQq-wKz-73" value="&lt;font style=&quot;font-size: 14px;&quot;&gt;r&lt;/font&gt;" style="shape=parallelogram;perimeter=parallelogramPerimeter;whiteSpace=wrap;html=1;fixedSize=1;fontSize=14;" parent="iGU3sP1IknaeFaQq-wKz-72" vertex="1">
          <mxGeometry width="162.1262701363073" height="49.885057471264375" as="geometry" />
        </mxCell>
        <mxCell id="iGU3sP1IknaeFaQq-wKz-74" value="&lt;font style=&quot;font-size: 14px;&quot;&gt;return&lt;/font&gt;" style="whiteSpace=wrap;html=1;strokeWidth=0.56;fontSize=14;" parent="iGU3sP1IknaeFaQq-wKz-72" vertex="1">
          <mxGeometry x="24.94" width="45.06" height="24.94" as="geometry" />
        </mxCell>
        <mxCell id="iGU3sP1IknaeFaQq-wKz-71" value="" style="edgeStyle=orthogonalEdgeStyle;rounded=0;orthogonalLoop=1;jettySize=auto;html=1;entryX=0.5;entryY=0;entryDx=0;entryDy=0;fontSize=14;" parent="Le0i1boc2uagi5iD-MZC-1" source="iGU3sP1IknaeFaQq-wKz-64" target="iGU3sP1IknaeFaQq-wKz-73" edge="1">
          <mxGeometry relative="1" as="geometry">
            <mxPoint x="794.4187236679057" y="803.1494252873564" as="targetPoint" />
          </mxGeometry>
        </mxCell>
        <mxCell id="iGU3sP1IknaeFaQq-wKz-75" value="&lt;font style=&quot;font-size: 14px;&quot;&gt;end&lt;/font&gt;" style="ellipse;whiteSpace=wrap;html=1;fontSize=14;" parent="Le0i1boc2uagi5iD-MZC-1" vertex="1">
          <mxGeometry x="732.0624659231722" y="853.0344827586207" width="124.71251548946715" height="49.885057471264375" as="geometry" />
        </mxCell>
        <mxCell id="iGU3sP1IknaeFaQq-wKz-76" style="edgeStyle=orthogonalEdgeStyle;rounded=0;orthogonalLoop=1;jettySize=auto;html=1;entryX=0.5;entryY=0;entryDx=0;entryDy=0;fontSize=14;" parent="Le0i1boc2uagi5iD-MZC-1" source="iGU3sP1IknaeFaQq-wKz-73" target="iGU3sP1IknaeFaQq-wKz-75" edge="1">
          <mxGeometry relative="1" as="geometry" />
        </mxCell>
        <mxCell id="x-VxbM6PYA0LFNXER4f5-1" value="" style="shape=image;verticalLabelPosition=bottom;labelBackgroundColor=default;verticalAlign=top;aspect=fixed;imageAspect=0;image=data:image/png,iVBORw0KGgoAAAANSUhEUgAAB1UAAAFDCAYAAABiNlfrAAAAAXNSR0IArs4c6QAAAARnQU1BAACxjwv8YQUAAAAJcEhZcwAAEnQAABJ0Ad5mH3gAAJigSURBVHhe7f2P91Z1ne//f/+B01ln1syZaU1x1nEWa1XTmVwep+M4cDyZZMkRpOCYNFJMSZoyZoJD6CioxzR/oaD5IyOyHAyyMDTTACPUNATU/IFh4A+EAOEApVLS/n4eV3vjvvb13K+993Xta/+839Z6roz3vn7t69p7v/br+Xo9X/8/DwAAAAAAAAAAAAAQi6QqAAAAAAAAAAAAADiQVAUAAAAAAAAAAAAAB5KqAAAAAAAAAAAAAOBAUhUAAAAAAAAAAAAAHEiqAgAAAAAAAAAAAIADSVUAAAAAAAAAAAAAcCCpCgAAAAAAAAAAAAAOJFUBAAAAAAAAAAAAwIGkKgAAAAAAAAAAAAA4kFQFAAAAAAAAAAAAAAeSqgAAAAAAAAAAAADgQFIVAAAAAAAAAAAAABxIqgIAAAAAAAAAAACAA0lVAAAAAAAAAAAAAHAgqQoAAAAAAAAAAAAADiRVAQAAAAAAAAAAAMCBpCoAAAAAAAAAAAAAOJBUBQAAAAAAAAAAAAAHkqoAAAAAAAAAAAAA4EBSFQAAAAAAAAAAAAAcSKoCAAAAAAAAAAAAgANJVQAAAAAAAAAAAABwIKkKAAAAAAAAAAAAAA4kVQEAAAAAAAAAAADAgaQqAAAAAAAAAAAAADiQVAUAAAAAAAAAAAAAB5KqAAAAAAAAAAAAAOBAUhUAAAAAAAAAAAAAHEiqAgAAAAAAAAAAAIADSVUAAAAAAAAAAAAAcCCpCgAAAAAAAAAAAAAOJFUBAAAAAAAAAAAAwIGkKgAAAAAAAAAAAAA4kFQFAAAA0OWll17yrrvuOu+aa65xxsUXX+xNnDjRGz9+PBETt912m/fHP/7R37MAhuWtt97yvv/975vnqmicfvrp5vFK/CmmTp3auQ6gnjgW8guOBQAAEEVSFQAAAECXO++80/sP/+E/EDnEuHHjvG3btvl7FsCwvPbaa95JJ51kHodE9li0aJG/Z1E3HAv5BscCAAAII6kKAAAAoAtJ1Xxj5cqV/p4FMCwkkvKN0047zdu/f7+/d1EnHAv5BscCAAAII6kKAAAAoMt9993nvfOd7zQ7F4nsMXPmTO/NN9/09y6AYdi3b5/3mc98xjwGiewxcuRIb+3atf7eRZ1wLOQbHAsAACCMpCoAAACALn/4wx+8K664wuxctOLEE0/0nnnmmc7smCrHli1bvNWrV3dC5fy0ntyXvvSlTone973vfeZnyyM+9KEPdV4bwHA999xz3tFHH20eh1bcfPPN5rmiSrFz507v8ccf75y3NOBF611ffvnl3imnnOIde+yx5ufKK+bPn8+a0DXFsZBvcCwAAIAASVUAAAAAPX7zm994n/zkJ83ORSuUoFQyts4OHDjQ+dzqsL3++uu9KVOmeCNGjDA/b9ZgTTZg+JT0+O53v5t6pr0GPCj5VGf6zHv37u18Dn32Cy64wBs1apT5ebMGa0LXF8cCxwIAABgOkqoAAAAATOvWrUs9g1Mdt0uWLPEf2RxKFL/44overbfe6h1//PHmZ08Tp59+uve73/3Of1YAw6JS27NnzzaPQysmT57cmQHXNEouaYDIueee2/fgEJ3XV61a5T8j6oZj4U84FgAAQJ5IqgIAAAAwtXGmi4v2hxKsKjeYtVyw1mRbv369/0wAhqmNM+1dXn/9de/+++/3Jk2aZH5+V8yaNaszix/1xLHQjWMBAAAMiqQqAAAAgFiaXal1R60ORiumTZvm7du3z390c6lj9q677vKOOeYYcz9YwZpsQHF+9rOfZZppv2LFCv+RzaXzz+bNm70ZM2ZkGizDmtD1xrHQi2MBAAD0i6QqAAAAACfNzhwzZozZyWhF02e6hCnpvGDBglQlBSdMmODt2rXLfySAYVLS5MYbbzSPRSuaPtM+TPtmw4YNqWfr3Xnnnf4jUUccC/E4FgAAQFYkVQEAAAAkyjLTRaVuH3zwQf+R7aDE89SpU839EYRmw7AmG1CcrDPtp0+f3qq1j7Xm5uLFixPP7awJXX8cC24cCwAAIC2SqgAAAAASaeapZqBanYxWaKbLpk2b/Ee3gzplb7rpJmcpwTlz5nhvvfWW/wgAw6YZdzofWcejFfPmzWvdMbpx40Zv/Pjx5v5QHH744d5TTz3lb4264lhIxrEAAACSkFQFAAAAkIrWStWaqVZHoxWaFdO2GR0qJXj//ffHznZRhzZrsgHF0hqRaddN1LGrmflts3v37s7sRGufKFgTuhk4FpJxLAAAABeSqgAAAABSyzrTZeHCha3sfHz00Ue9o48+2twnrMkGFCvrTPuxY8d6W7du9R/dHhoEM3fuXHOfsCZ0M3AspMOxAAAA4pBUBQAAAJDJkiVLmOmSQlxilTXZgOLt3LnTmzx5cs/xGBdtnGkvcckk1oRuDo6FdDgWAACAhaQqAAAAgEw00yVuBocVn/zkJ73f/OY3/qPbRQnlaClg1mQDyqHj7sgjj+w6HuNCiZPvfve7rZxpr2SSEmnRfcKa0M3BsZAOxwIAAIgiqQoAAAAgMyVJlSyNdjTGxezZs70333zTf3R7qBNandHRmb2syQYUL+54jAsNiFi3bp3/6HaxzvGsCd0cHAvpcSwAAIAwkqoAAAAA+vLII4/0zMKMC2a6dM90UenFPXv2+FsAKMrrr7/uzZgxo+t4dAUz7bvP8cuWLfP/irrjWEiPYwEAAARIqgIAAADoixKkixcv7upkdIXWF33uuef8R7fLpk2bOjNbgn2hJDNrsgHl2L59uzdx4sSu85Mrrrjiik7Z87ZRedN58+Z17QvWhG4WjoV0OBYAAECApCoAAACAvsWtNxYXmqG5c+dO/9HtoQT0woULu/bFpZdeyppsQEmsmWdxoUEQS5Ys8R/ZLlu3bvXGjh17aF9oHc5nnnnG/yuagGMhHY4FAAAgJFUBAAAADCQ6CzMprrnmmlbOdNmxY4d38sknH9oPJ5xwgvfqq6/6fwVQJGvmmSt0jmvrTPs777yza1/cdttt/l/QBBwL6XEsAAAAkqoAAAAABvbggw96I0eO7OpsjAvNdFmxYoX/yHZZtGhR175YuXKl/xcARdNM++nTp3cdk66YNm2at2/fPv/R7bFt2zZv3Lhxh/bDaaed5u3fv9//K5qAYyEdjgUAAEBSFQAAAMDANPNUM1DDna6uaOtMl5deesmbMmWKN2LEiM5+mDVrlnfgwAH/rwCKpvMQM+3dVL5cM/JGjRrV2QcaQLN+/Xr/r2gKjoVkHAsAAICkKgAAAIBc7Nmzp5MwjHa8xoXWYtXsGAAo0/Llyzsz6K3zVDS09qTWoASaiGMBAADAjaQqAAAAgNxknely4403dmZ+AEBZss60HzNmjPfiiy/6jwaag2MBAADAjaQqAAAAgNwoQfrd736XmS4AauU3v/mN98lPftI8T1nBTHs0FccCAABAPJKqAAAAAHL15ptverNnzzY7X62YOHGit337dv/RAFCOdevWdQZ6WOcpKxYvXsxMezQSxwIAAICNpCoAAACA3GWd6TJjxgzv9ddf9x8NAMXrZ6b9I4884j8aaA6OBQAAABtJVQAAAABDobK+aWe6qONWHbjMdAFQJpUxVTlT6zxlhQaPaBAJ0DQcCwAAAL1IqgIAAAAYCiVIFy5caHa+WnHkkUd6Tz31lP9oACjH1q1bvbFjx5rnKSvmzp3r/eEPf/AfDTQHxwIAAEA3kqoAAABoFa33uXr1am/mzJne+PHjD8WcOXM6/95vCdqDBw96L730Ume2pWZ2hJ9bcfrpp3u33HKL9+yzz7aqwzHrTJfJkyd7O3fu9B+NKgj/ti+44IKe37X+/eWXX840y1jHwOOPP+5dfvnlnTV1g+ebOnWqd9ttt2V+vjT0fC+++KJ3ww03eKecckohr4n6yjrTfsmSJf4jURW6/qgk7fXXX985zoNjXuccnXv0t6zX/B07dnS+a537gudTDNqGqDKOhXrRb3DFihU9bdEm/0YBACgSSVUAAAC0xhNPPOFNmjTJ7AgM4ogjjugkiZR8TeO1117zbr75Zu+oo44yn88KvYYeow7fNti0aZP3oQ99yNwXVlxzzTXMdKkAdbzedddd3vHHH29+T9FQQnzDhg3OxKQStCtXrvSOOeYY8znCMW3atE6iMw9Kpur5rNcJh7bRtnnTeeIb3/hGJ5mrhI6SPAweqLa33nrLmzdvnvk7sULnuOeee85/NMqi88/mzZu98847zxsxYoT5XYVDycIFCxYkXo91vF544YWJa4zq+q6kYpOuYRwL9aB2q9qv+g1a30sQWdu5aen6/uijjx4atKiBB0rI698BAGgSkqoAAABoPHWyPvjgg6lnWihUws7Vyaq/qSM2TadtXCix9POf/7wVs+O0/0eOHGnuh2io01qzLFCO4HhJk/iMhr47zQCzjh39m44r63FxcfTRR3c6afulz/LAAw8kdjKHQ9uuWbPGf4bBPf/8896YMWN6Xof1B6tPv9np06f3fHdxoaT8vn37/EejaLt3706V+LRCx+i6devM67HOQToXWY+Li6Q2RN1wLFSbfvtZqoIoNPAgr9+oBhEo8R499vT/lcBtQzsXANAeJFUBAADQeCrxF02ojho1qjOSXv8b/vdwxM2Y1IxXPdZ6jOLYY489VG4tKZmj93X//fc3vsNJ+1H709oHVjDTpRyanXrFFVfEJiX0e9bvety4cc5BCqeddlrXTMz9+/d755xzTs92eg49l+tY7Pe3oGNKM8asgQ/BMRp3fOb1+9P+PPvss83XUGjWLqpNvwP9Hqzvzwpm2pdDs+StwQsKnc80417HvI59axuFzkfLli07dD3W/8YNyArOIVpvNG5wVdN+CxwL1aTBOVOmTOnZ/8H1Vb/9uGt6Xt+RBiLFDZxTe0BtAAAAmoKkKgAAABpNnU2aERZ07qjz8/bbbz9U9sw1+0IdROEZayphpnKo0Q5WPadG/K9du9Y7cOCAv/WfqFNWpQi1nlv4MeHQDJg2JBD37NljdvzFhWZdNGmmT9VpX+t3HP0eTjrppE7if+/evf6Wf6KOWFcp3+D707E2e/bsrr/pN6/ZyNHO3G3btnlf+cpXejqA9fgspQp13Gl2TPh59N/qQNaaiIFXXnkltryxZpoN2tm8fv165wztPGfEYniWL18em5SIhq4PKnmJ4ug4ig6Q0HVZ55Jf//rX5nkmbkZr+PvTzNXo9f7888/vPD5Mz79q1SrvhBNO6NpWj9VzNAnHQrVE27gKJfsfeuihQ797XQ9vvfXWrm2COPLII72nnnqqs12/1O6dNWuW+fyKs846i3VcAQCNQlIVAAAAjaWOpBtvvLGrc2fx4sWdfw9TYii8TTi0JpQSQ+qc0jqo0SSNOmbTrI1odXyFI2vSqK6yznTR9xf9vpA//cajpQOVpEiz7pq+07jSmDreoslNrSn60ksv+Y/upvVMrbUQDz/88Ewdv9HZ6fpva0a4Zs9oFk34tYLQ73TLli3+lv257bbbzOdWaB3mjRs3+luiynT+V0Le+h6t0IzJYazNi15K2kUTn2nWRtZ3qln54ccFcfLJJ3fON+Frts5hixYtOpSoCtM58gc/+IE5QGPOnDmdNUmbgmOhOpSonDFjRtf+1iBBlQKOcrVz58+fP1A769VXX+0ZUBCOyy67jHYcAKBRSKoCAACgsZQQCSfw4tb4UmJDCY5wJ1AQmmX22GOP9SRUlURS4iZLR5HKCoafOxyaLfDMM8/4WzaX9lc0yeYKZroMn9VJro7wtL9HfafqlA0/PojDDjus67vW8WjNytZ70EyauDKaijvvvNPf2i06gEG/IZXwtI5VdUprFk34dcIxSHnepNK/Si5r9jbqIWlgTDSYaT980UE6Otdce+21qQcoRdsI4YjOMI8rk7pp0yZv0qRJXduGQzP9X3vtNX/rZuBYKJ/VllKJ/bgyu5rNHf5OwjFoeV61hV1tuqVLl/pbAgDQDCRVAQAA0EjRRE+0lG/Y888/HzvTTqFZK+EOI9dMO5cXXnjBGz16dNdzh6MtHU/qmFZpVWsfWKH9vX37dv/RyFu0nGNc4tPF1WEbhI5BJTejdKxGZ5Rbcfnll/uPiKcZYfPmzet6nP5/3EwxJTuU9AhvH460iVyLzhHHHXec+byKps1gawPNXtQAGOv7tMKqjIB8WOXk4xKfcZIGVQSh2X9WUlAzMOPWcQ1CbQu1MZqGY6FcSuaHBwTov/VvcXQtC38f4Rg08b9gwQLzeRVZq0wAAFAHJFUBAADQSFrzbNy4cYc6doIyvpakpGo4NDtDszT6kZTASZM0aoqsM11U4o41ufIXTQr0OzM4zTEUV+JaM2LTdM6nOT6iz6Wki2s2qDp71ekbfp1wqNxnv1zlFhV33HGHvyXqwpod5godT5rFhXxZAzH6nQ2p80r4eaKh79BaF1UDIi699FLzMeFoalKVY6E80d+evgMNjoqj7TWIJ/x9hGPs2LF9D1xzldBXqB2eZokMAADqhKQqAAAAGima0HAlR1zlf8PRzwy+sKSkqjqF33jjDX/r5ouue+kKdRqqA5eZLvmxZgwvXLiwr32cdAxpluratWv9rbu51h0NR9KsUaujecWKFf5fbffcc0/Xa0RjkJmqrtk72h/r16/3t0SdWOsYumKQgTiwRWdJKim0detW/6/p6Vyn9R7D31c0Zs6caQ4GSVpHMogmlv8NcCyUIzp4KG5pi8DevXu9U089teu7CMcgv9GkigyzZs3yDhw44G8NAEAzkFQFAABA40RH5avzybU+ZNKMMkW/M/jCkpKqWn+xTbMx1aGtkoDWvrBCM34GSWqjm2ZfhZPaSbM6XZQgD39X0VCHrjp2LUkzxRRpkpDR9RFds9NFHb3q8A2/TjiUlNV6yv1Imr2jZIySMqgnzepSWXLru7XiiiuuyFSWFvGU4NSs92DfJs3Sc9H11rXusUIDLyxpK1w0PanEsVAstZvCS1vo979q1Sr/rzZdO3UNDX8P4RhkQF9S+1mDpgAAaBqSqgAAAGic6AwSJTeU5Ihz1VVXdXUCWZHHemAkVXsp6aUOPWt/WDF58mRKyeVAiQnNwAr2a5qOWRfXem0Kzdq0pJkppkhKkIpmo4cfs2zZMv8vtqSZZoMkPpMSLm2bld5EGmSTZab9kiVL/EdiEJrxHk4QpTk3xEm6JmsGXtz66WkqXAx6Xq0LjoXiRJe2UJsoaTBUUjWIfhOfun4rSW49p0Lfdb8DkwAAqDKSqgAAAGgczZpTZ07QsROX0JGkGWWKpNJqaSUlWtq0pmpYdF3PpLjmmmuY6TKgaPnAQRITaRKja9as8bfuFU2GRiPNLPFoecM0CdGk0r8qJaxZ7/1Iem5m79SffvfRdT1dMWj5eNglvgdJWiYlRs8666zYgU7R5JYV/a7zWjccC8WJXluSriVJpX+TKrm4JD03FRkAAE1FUhUAAACNE13LUOXJ4iStB6WEjsqk5kEj9sPJ3mi4kr9Nl3WmS9JamXCLHiNJszpdkgYmuGZ7idbY01p71mNHjBjRmdWkTnsXrbF4+OGHH3qcyn+7EqLRmbrRGCRZk2b2jgZ+oP6yzrTPa4BOW0Wv12lm6bkklS51XZN1nGud77hrusqpt2n9UI6F4YsubaFrnq59LtGZ3dEYZEBV0kDBNlZfAQC0A0lVAAAANIo6cDS7JOjUSRopn9Spmuf6X0kl2OLWbmsD7WPNQLX2ixXMdOlf9BjRvtR6pP164YUXvNGjR3d9P+FI07Gqks4XX3zxocS6kqnTp0/vfMdJCVWJlh9OOpai669GY5BkTdLsnaQkM+pFv1HXbykazLTvn2a8h/el1pZMc36I4yr9n2bww8GDBzttiBNPPPHQ4/Rb+M53vtOKGapRHAvDFS1X7VqrXHRshNdftWKQAVVJFRnaPFAQANBsJFUBAADQKErezJgxo9Oho05RlQo8cOCA/9de0Rl70XCVLc1C72HWrFnmayjSzDhoOs1a0ewVa/9Y0ZbSinnTLM3Zs2cf2o/6b/1bv5IGJhRR6lazSoMZYyolrZLSLkklhwd5z4OUFEU9aeZ83IzFaKQpZw2bqkYEAy8GrSKRNMOe0qX94VgYHrV3NLM02H8quewaVJBUonqQ37hed5Cy/wAA1BlJVQAAALTWoGVLs1DHlTqwrNdRTJgwwdu1a5e/dXtlnemycOHCgWYqYXCugQlpZnsVLdoxHY1B1piTYc7e0eAMzVZqcrgGwVRV1pn2Y8eO9bZu3eo/GmVIKv1P6dL+cCxUR3iwkRWDrBtORQYAQJuRVAUAAEBrJXWq5jmjTIklV+dW0hqQbaEEqWudumhopgvrU5anjrO9ouuvRmOQNeaia95Z0e/snZdfftn7xCc+YT5nk2L8+PHepk2b/E9dH661ga1QRQWSduWpwgz7puJYKF/StUhtrH7XDZek6ygVGQAATUZSFQAAAK2V1Kma53pQSWWG27yeapRmusydO9fcT1Ywo6g8dZztlXQsan3Wfg1z9k503dgmh9a6rCMlGjTT2fpM0ajiLO42qdsM+7rhWChX0rV50OoorKcKAGgzkqoAAABoraTkSl7rQSXN5jv66KO9559/3t8akmWmy7x585jlW5K6zfZKSnoOeiwmzd7ReUDng34klXJsSugzLl++3P/U9ZJlpr3KnNdxRm4TsJ7q8HEslCsp6XnFFVf0vXRCmooMahsAANBUJFUBAADQSkWup6r1GV0zNgYpN9pkmrmi8r7WPgviS1/6EvuuREmzvR577DF/y2pYv369N3LkSPP9KmbOnOm9+eab/tbZLV261HzeIAaZvaMZ3Pfee29nvcImhz6jPmtdaWa2ypla338QOq/97Gc/8x+BoiXN4tN15Y033vC3Rr84FsqhdalnzZpl7m+FroFr1671t85uz5493sSJE83nVuTZfgYAoIpIqgIAAKCVkjpVB5lRFpVUtpO122yaRbFw4UJznyk0k1UzWlGOOs72SpqdPkjpX2bvILB161Zv7Nix5m9Agw00g6/fWWIYHOupFodjoXjDLv07zIoMAADUAUlVAAAAtFJR66lqpobWlbReQ6GOKXVQwaZZqJo1FN1vY8aMoWRyyV544QVv9OjRPd9NEFWb7TXs0r9Js3e0r7TP0A6afRedaa8kksqV13kmbhNozd7w9xKOKs6wrzuOhWINs/SvJFVkqOua2AAApEVSFQAAAK2UNGMtrxllStIoWWO9hoIR/W5WUlXrrz333HP+FihL3WZ7Jc2u0eAHDYLoF7N3EGYlklTemCRSueo4w77uOBaKk1QxQclsLa3QLyoyAABAUhUAAAAtlNSpmueMskWLFpmvEQRlBuOpw1Udr+H9xfpr1aBZLprtEv5uwlHF2V461qz3GsSgxyKzdxDQoA8N/gh//6z/XA1JA51YTzVfHAvF0oAADQwI7+9wDDpogIoMAACQVAUAAEALFbWeqjoNTz/9dPM1FEceeaT3zDPP+Fsj7ODBg97ixYs7yblgf+m/WX+tGuo22yupDPfIkSO99evX+1tnx+wdBLSGpNZ7Dn/3rP9cHXWbYV9nHAvF0yzUcLspGrNmzfIOHDjgb50dFRkAACCpCgAAgBZK6lTNa0aZEqZKnFqvoVDCldkavZQ0VfI02jFIucDqSJrtNWgp3bwlzd6ZMGGCt2vXLn/r7Ji9A1GyKJpEolx5daSZYT9IaVS8jWOhHEkVGe68805/y/5QkQEAAJKqAAAAaCF1+lidQUHkNaNs2J1bTWWtv0a5wGq55557ur6faFRttpdKEbtm72iWqWab9ovZO9D5Kbr+M+XKq2Xv3r3eqaee2vUdhYP1VPPBsVAOla2O7vdw6Bqla1W/qMgAAMCfkFQFAABAqxS1nqpmrk2ePNl8DYVmbGzZssXf2vb44497U6dO9caPH9+Z+deGzl5r/TXKBVaLZntddtllXd9ROAad7aWO25tvvrnzu1d885vfHCjhKRrAYL3XIDT7ZhDM3mk3a/1nHQeUK6+WjRs3ekcddVTX9xSOQWfYq+2gpK3OW2pnbN682f9Le3AslOe1117zTjrppK59Hw5VU1DbtF9UZAAA4E9IqgIAAKBV1OGjjh+rQ0iR14yytWvXdtZptF5DkbSulf6mbYLtVWpVJVebjHKBxdJsoiVLlhxK3Kuz9Prrr/d27tzpb2FLmu2l9Yq1bnG/omseD7oGnCxYsKDrPYaD9VQxCMqVF0v7W9eESy655NDAC5XS1yxIrcXtkjTDXueJQYTPM4OeV+qIY6Fc0WtnNFhPFQCAfJBUBQAAQKsUsZ6qkiyXXnqp+fwKdTiuWrXK39oW7Ryr2hqVeaNcYLE2bNjgjRkzpmt/B5E0MzipY/Wss84a6LcaTXzkUUr48ssv73rOcAyaBE5KMjN7p9koV14cnVe0Jmo0aadImg2ZZvDDmjVr/K2zi54H2lhKmGOhXElrnQ86aCBpUAIVGQAAbUFSFQAAAK1SxHqq27Zt88aNG2c+v2LChAnerl27/K1ty5Yt63rMokWL/L80D+UCi7Vp06aeEsvRcP3e9DfrMUEM0nH75ptvejNnzjz0XEceeaT3zDPP+H/tnyupqnKJKpvYL2bvtBflyoujpOi8efO69nU0dN3V9deSdF0edHBFtDqFBlYNWra8TjgWypeUVB1kHX8qMgAA8DaSqgAAAGiNpPVUB+1UDSTNhtVMG1eyULM6VM4w2D6vxFIVUS6wWEpazp49u2tfW6HOUyshoJlimjVtPSYIzWbpVzQxoQSr3vOghplUZfZOO1GuvFjr1q3rmQUZDQ1u0CAHi9Z5tma4BqFZpppt2o/oYBCdw3QuawuOhWoYZlKVigwAALyNpCoAAABaI2m9qTxmlClJqKSp9fwKdeqqc9dlWImlKqJcYLGUnFeSPry/rdB38MYbb/iPetuWLVucs1wHWUcwmrDVsZJUJjutYSVVdbxfdtll5vMGweyd5qFcebE0wMNVUj8InTMee+wx/1Fv03E6f/588zFBDLLepMoGh6/ZGhTVlmsYx0J1DDOpunHjRu+oo44yn1dBRQYAQJuQVAUAAEBrJM0gHXS9KUmaDZtU+jc6kzDPxFLVUC6weEuXLu3a33ERN7syWpY6GurQVcduVtaM5TzXEXYlVVUSdOfOnf6W2ViDAsKR1+x3VAflyou3Z88eb+LEiV373Iq42XJ6/OTJk83HBKFzRD+iszSVXB1kbdY64ViolqSk6h133OFvmY2VOI9GHu1nAADqgqQqAAAAWkOdPlZnkEIdgUkzSNPQjDfNfLNeQ5E0GyY642XatGnevn37/L82B+UCy+E6BoKIS+SrYzVcltqKfpOq0QS7EpUq95kXV4nevN6zFczeaRYr+a+gXPlwJVWZCCJuhqjOZ9HvLBr9JFWtpKIGRTW1skQYx0L1JJXozes3bgUVGQAAbUJSFQAAAK2gGW9nnXWW2RmkOOGEE7xXX33V37p/SUnV2267zd+yl2bTTJky5dC2TZ3xQrnA8mgGani/WzFjxgxzhujy5csTExMqD6gygVls3bq1J8G+cOHCXGc6Jc3gydohbA0KsILZO81CufJyaPapZqGG93s09L1YA6Oi19W4UBnvLOecgwcPeosXL+46J44dO7ZzPmsDjoXq0e/XtfxE1kE+cYnzaFCRAQDQNiRVAQAA0ApKmCpxanUIKfIqNZpU/jduTStrNsDcuXMbN+PD+pzqmFVZ2TyTaLDp9xfe99FQQtXqdH3xxRe9MWPGmI+Jhr7LtKyE6jA65jVzTGsTh18nHFqvUes2prF7925v+vTp5vNEoy1lQNvAmpmsc32/paORXtJgpSOOOMJbvXp1zzVE///GG280HxMNlQdWAjYNK6HapoFBHAvVFV2TPxxaT13rqqehY+f+++/vSZxboQGLeZXqBwCgDkiqAgAAoBUee+wx52h71wzSrFwlVq2kqtVBq0RT09YWtWY96L9Zf60469evNztcJ02a5D388MOd32KUfofRmV6aDXPllVd2/VsQaX67+r5V3jeaqNXrDOt3r9eL6yDWLNak0tNx7zkumL3THNbM5Caeo6tKJfNVOj+8/xUjRozw5s2b10m6Rul4XbJkSWebYHslAu+++26zbHfaa5EGfKiMavg6ptfQa7XhOsaxUG3RdfmjoWt30mA96zfuCioyAADahqQqAAAAWuGOO+4wO4MUSjIp2ZQXV6nR6Iw4q/NKHb5JCZ46ssoFsv5asfR7i66Lqt+bZnlFE6pKEGzYsMEbP3581/bBTFKrcz0IzVravn27/0zdtm3b1pmFHU52KIaZUBVrlnQ49DmfffbZnsSI/r9m6p5//vmpO5kVec1+R7n0W4+WK2/qObrKrHVRL774YjOhqu/suuuu69o+mEmq4zmupKm2ueuuu8zBJTp/qEz48ccf3/WYNiVUORbqwZpJHIR+95q9bV2b9G/33Xefd8wxx5iPtULPZ5XdBgCgyUiqAgAAoPGUxJwzZ47ZIaTIUvYvDXWuxpUcVAfsl7/85U5y55xzzulJMqojLM8Eb1VYnXysv1YOdYBaMzZHjRrlXXDBBZ3fpmahnnLKKT2Jh+iMJFfnrX7rSq7q+RRKgHzsYx8zt9VvQWV1h81KCkRD71HvVe9Z++PYY481t0sKZu/UX1y58raUea0SJXxUnjz8XSh0ntGADJ2zgmNW5YDD2+g8Fp6FmjTAQue04Byg+PznP2+eM/U6DzzwQCsSqhwL9WINYguH/qbftb5THTuf/vSnndvHBRUZAABtRFIVAAAAjafOWM0aszqEFEqA5t0pmiZ5Ew3NlNu4caP/DM2xadOmntmOlAssj37rcTO1XPGFL3zBXDPP+n7ThpISmuWlDvui6HygEohZP38QSuLcfPPN3tVXX23+XcHsnfrTb1Lfc/h3Ek3OoViu2fFxoXOMSv5GvzPr+80S06ZN815++WX/2ZqNY6GeVGkibbl6K7QswI9//ONO4tT6u4KKDACANiKpCgAAgFZYtGiR2SE0zOSe1rZSR6SSMNZrB6HOSZUAbuKsTasTXLOA2louUKUq9ZsIZkAtXbrU+/3vf+//tTjqCH/wwQdTlflTUkKd5/o9x9FvVzMzk37rQWhGzPXXX2+W7iyCPr86nDVL3Xp/Vug4PeOMMzqlgPfv39+ZhWttpzjhhBO8V1991X811I1+H9bAAx2zRQ4AqBKV3w3OW9dee623efNm/y/F0oz2Cy+8sOe7sUKJTx2vcYLzgJJH1uOt0Dkjbv3pJuJY6FWVYyGN4NqcZRbqUUcd1RnspGu+Sl5b2wRx2223+a8EAEB7kFQFAABAK6hz6Fvf+lans0gdQepgUsmzIkqO7tu3r9NBNXXq1ENlCfX6J598snfDDTc0draLNVtXn7vN5QKjHZRK9pdJx4XWU1V5bK0VGHScKzmqRIM60/X7TUtJUj3GKiWo8sIzZ87svF5VZrYoMaIOcR2HOh6j7znYD7feemvnOFWCQZ555hnvyCOP7No2HLNmzfIOHDjQ2Rb1Y5XObHO58ugggnHjxnXWRi7T1q1bOwmd8HVVofOMSuw//fTTqROf2k5l9y+55JKect9x54C24FjoVsVjIQ19XytWrOh8d1ZJe+v6rKUzLr300p5tgxg5cmQjl6sAACAJSVUAAAAAudMMFs3iCHfAKWGnhFvbOqUD6tQ8/fTTD+0PJeWUnEP9xM18D+LOO+/0t0TdWOsEt71cuWbmhWcqKtGihAuajWOhV5uOBSWLlTQOf//hmDBhgrdr1y5/awAA2oOkKgAAAIBcUS7Qtnbt2s7MjmB/KMHa1tk+dRZNjkfj6KOP9p5//nl/a9QJ5cp7aTa7ZrAF+0PndSWW0GwcC73adixEE8jR0NrkbR0kBwBoN5KqAAAAAHJFucBeKqd39tlnd+0TZjPWU1LpX3W6q/Md9aLzE+XKe61Zs6ZrMAiz05qPY8HWpmMhTelfDRQDAKCNhppU1YilF198sbNw+4knnnhohJP+V+v1aHSvRrDntS6F1sF46aWXDq2rMX78+K6YOHGid9lll3XWEdizZ4//KAAAAAB5oVygbfny5V0zPpjNWIwdO3Z01jPWLOkFCxZ4jz/++ECzpXXfOn/+/K7fdziaPnOpqShXblO/yZQpU7r2C7PTmo1jwVblY0Hfma5tusbpu9M1T9e+QWzZsqWnLRcOKm0AANpsaEnVnTt3ehdeeGFXx4ErJk+e7D388MOdxGhW+/bt6zTwlKi1ntsKva8ZM2Z0kr4AAAAABke5QJvuOcaMGdO1XzRrVbNXMRz79+/35s6da96Pfv7zn/dee+01f8tstm7d6o0dO7bnOYNQpzsDeOtFSRHKlffSfrnxxhu79on20SOPPOJvgabhWLBV9VjQ+/r5z3/uHXPMMV3vTaGZxT/84Q/9LbPR8y5cuLDnOYPQZ9dAMQAA2mooSdUNGzb0dBqkDZUY2b17t/9MbiqppAbfEUccYT5XmhgxYoT3ne98p9UNRAAAAGBQlAu0WftFQenf4Ynb5+FYtGiRv3V6aTqaVRUJ9UK5cpu1Xyj922wcC7aqHgvW+wrHuHHjvG3btvlbp5c0eGjatGmdyS0AALRV7knVRx99tFPKyrrwpg2V6t20aZP/jLYnnnjCmzRpkvn4rKGb33nz5pFYBQAAAPqgdjTlAntZ+0VB6d/hsWYUWaFEwRtvvOE/Kh1rxnE4VAmJ2cf1Qrlym7VfFJT+bS6OBVtVj4Wk65FC7bDHHnvMf0Q6SddQJXGZrQ4AaLtck6pxjY1+Qo0Dq6NB5YHvuusu52isfkKNDa07AAAAACA9dcBRLrCXPvvNN9/cs18UlP4dHs3K0eyc6D6PRtbvQN+nyglbz6XQfbDuh1EflCu3aYC7BrqH94tC5zKSKc3EsWCr8rGgagvR92VF1vf51FNPeUceeaT5XIq2t+0AAJDckqoq/aASENZFd9asWd4LL7zQWbfmlVde6VyErc6FaGidVa3NGtCFWzNKXY9VOd9zzz23U3ZJDUO9pkKvr9d1lQpWIpc1VgEAAID0rPJzSj61uVygK6GqoPTv8GhWTpp7zawzVXV/Gfe8+ve2z8quG6tEtGaQq/JWm8UlkRSU/m0mjgVblY8FXbui35kVujZlmanq6tdVMHMZAIA/ySWpqptHa20ZXcA1eio6ikn/3yqDZYXKTuj5kx6jZKk6LpLq+qvBePvtt8cmV/tZWwcAAABoI6tSjTr62pxQ3b9/v3fRRRd17ZNwUPp3uJSwtvZ7NLLc9yVVZGLmTr1YfQsaGKIBIm2lPhfNaNP5KbxfwkHp3+bhWOhVh2NBE0dOOukk872FI8uaqkl9rsxcBgDgbbkkVdUpYDU4NEI97uYy7jHRUCPg5Zdfds5Q/cIXvuBt377df+Z4O3bs6CReXTfEp512WqcjBAAAAEA8q1xg22cxbN68uVNtJ7xPokHp3+FKk1QdO3ast3XrVv8RbtbvPBxtH0RQN0qERMuVt32m8ZtvvtkZeK6qX+Hfdji0jyj92ywcC73qciykTapq8kua79L6LYSj7Yl2AACiBk6qvvXWW96ll17ac9FNKqWrxKUSmNHHWXHyySebF3f920033dRp+LjoJnfBggXOhlEQo0eP7pQKBgAAAGCzygW2eRaD7kcWL17cUwbZCkr/Dtc999xj7vcg9Dtdv369v7WbEqpTpkwxn0cxffp0b/fu3f7WqAOrXHmbZxqrz2bq1Kld+8MKSv82D8dCtzodC3v37vVOPfVU8/0Fcdlll6UawKWE6pIlS2L7S/Ubuf/++1ubaAcAwDJwUvWZZ54xFzFPGhGli7tGaUcflzaUUFXHxcGDB/1ntGkEsutGOBp63ixrDgAAAABtogTiVVdd1dWGbussBt2LrFy50jv++OO79kdc6L5J908YHiVMR44c2bPv1WGsSko7d+70t3R76aWXvIkTJ/Y8TxAzZsygwlHNPP300z1Vq9o601jHgY6HNAPPFRpIrwH1aAaOhbfV8Vg4cOCAN2vWLPP9qT2idklSX6koga5S+HEzVLVs2urVq0moAgAQMVBSVRfW+fPn91x409TtHySpmjahumfPnkwJ1SCaWtbml7/8pXfdddd1Rh8Swwl1JqZpvAIAANSRteaW2uZtKxeoe5n77rsvdTI1iNNPP51SsUNm3QOOGjXKe/LJJ/0t3NSW//73v9/pTA4/RxD6vWs9PUo414u1Lm7bypXrHK3ZeBdeeGHqBJJCv/lVq1b5z4K641hoxrGwfPnyzvsJvz/NTlXCNQ0toaal1MKPD4eqD27YsMHfGgAAhA2UVFXiVAnU6MVXidakTpVBkqrqyEkqSaLX12xZ6/FJ0cSkqkZsx3UMEPmFGrVat7dNnYoAAKAd1L6x1txK0zZvAn3Gxx9/3Lv44otTlfm1QjNCMHwPPvhgz2xV3Qtp6Rh1JFttdXVEr1mzxps0aVLX48Jx9NFHdzrUaevXi7UurpJKbSlXvmPHjs652/XbdkWaQfOoB46F5hwLGqClEvTR96gSxg8//LCZXNW1S9fAefPmOZPJ559/PqXtAQBwGCipumzZsp6Lb9qSViqxYSVkk2LatGnevn37/GeJF5fwTQrdfKddY6cu1HDSiDXr8xL5xwknnOC9+uqr/t4HAABoBmv9tSaXC9QgUHU0qwP2tNNOyzSbxQpK/xbHmlEdDv2Oda84fvz4TmjGcXSwQDj0N81oSls6GNWh81N0/ecmlyvXTGv9TlWy8/LLL++ZkdhPUPq3GTgWmncsWLOOw3Hsscceus4pkiZaHHPMMalLBwMA0GZ9J1XjZprq39KUQtq4caN31FFH9TzeFVlG0GldVNeNcVwcd9xxnfVzmkSNvjlz5pifl8g/mvgbAgAA7WZ13NW9XOBvf/tb77XXXvO2bNnS6XRV8lQdr6eccspQKrxQ+rdYWvtXM1P7uScMQo/V2qmbN29mdmoNNbFcuT6TSlwrWaSZ80qALFiwoJMsSxoc0E/o+Sj9W38cC4NHVY8F9a0qYWq957ShZOpdd91FWXsAAFLqO6n6/PPPd8ofRS/Gmr2ahho80ce6ImuD78477zSfJyk0Cn3//v3+szSHtd4CMZxQKRVG8gIAgKawygUqtE5leAZE1WPs2LEDzzYdJHR/gmLp3lFrwk2ePNn8TuJCHfLf+MY3OqUiUU/67tV/EL0H1jlA5wLrHFHV0Lk2/BmKjAkTJni7du3y9yrqiGMhn6jysaABW0ooZ1maQN//ueee21n+TAlqAACQXt9JVStpqdHrGumdhi740ce7QmsFZBnZ3W9StanrHKl8x7333tsZeW81Tol84rbbbuuMigcAAGgCq1wgkT00GFWDUlEOJRW0jtw999zjXXDBBT1teN0jXXnlld6KFSs6s5fTDuRFdVnlyonsccUVV3A81BzHQj5Rh2NB66hqOTNVadDaqtFrndpz6vNU9RFrzVUAAJBOX0nVQUv/xj0+LrTO6dq1a/1Hp9NPUnXMmDHeiy++6D8DAAAA0F5WuUCiv0h7nwRgcEnrDBLpQjMbNYsN9cWxkE9wLAAAgLC+kqpxpX/TlrR69dVXvRNOOKHn8XExc+bMzLP/NDpLyVjr+axQI6nO60kAAAAAeVGb2CoXSPQXlP4FihFXrpzIHpT+rTeOhfyCYwEAAIT1lVRV2aRoI+Pwww/3nnrqKX8LtywJT3Xk9LMYfNbZsBqFzzoCAAAAgOetW7eOcoE5RZYlUgD0TwOxZ8+ebR6HRPaYP38+g85rimMh3+BYAAAAYZmTqm+99ZY3Z86cnkbGqaee6u3du9ffyu2OO+7oeXxcjBs3ztu2bZv/yGw2bdrUWTfAet4glLTV2giU4wIAAAD+ZOnSpWbbmcge/VTdAZDdnj17vIkTJ5rHIZEt+lmCCdXBsZBfcCwAAICozEnVuMZZ2kXb45KycaFt9Zh+/e53v/MWLFjQM9J+xIgR3hlnnOE9+eSTjDgDAAAAIjTo8LXXXiMGDAZvAsU5ePBgp8/COhaJ9KF9qH2J+uJYyCc4FgAAQFTmpOrLL7/sfexjH+tKUCpWrlzpb+EWl5SNC5UazkO4Qan/pdQvAAAAAAAAAAAAgDQyJ1U1q/Ohhx7qrEEaxKJFizozQtPQuqtaf9VKoEYjyzqtAAAAAAAAAAAAADAMmZOqg9LMUyuBakWWdVoBAAAAAAAAAAAAYBgKTapqlutll11mJlCtSLtOKwAAAAAAAAAAAAAMS6FJVc061exTK4FqRV7rqQIAAAAAAAAAAABAvwpNqj7//PPe0UcfbSZQo6HttD0AAAAAAAAAAAAAlKnQpCrrqQLt8JGPfMT7wAc+QBAEQRAEQRAEQRAEQRAEQRAEUWpoImceCkuqam1UrZFqJVCtYD1VoL6UVLWOa4IgCIIgCIIgCIIgCIIgCIIgiCKjdknV/fv3e6eddpr5YaxYuXKl/0gAdUNSlSAIgiAIgiAIgiAIgiAIgiCIKkTtkqqspwoAAAAAAAAAAACgjgpLqmrmqZVAtUIzWjWzFQAAAAAAAAAAAADKVkhSlfVUAQAAAAAAAAAAANRVIUlV1lMFAAAAAAAAAAAAUFeFJFVZTxUAAAAAAAAAAABAXRWSVGU9VQAAAAAAAAAAAAB1NfSkKuupAgAAAAAAAAAAAKizoSdVWU+1Gg4ePOjde++93imnnOKNHz+eGFJ87Wtf815//XV/rwMAAAAAAAAAAKAJhp5UZT3Vali+fLn3zne+09zvRL4xe/Zs78033/T3PFBf8+bN80444QSCIAiCIAiCIAiCIAiCIAiCqG2cddZZfq/3YIaeVGU91fK99dZb3pw5c8x9TuQfxx13nPfSSy/5ex+op+nTp5u/b4IgCIIgCIIgCIIgCIIgCIKoU/zjP/6j3/M9mKEmVVlPtRq0Ty+77DJznxP5h0Y9vPrqq/7eB+pn4cKF5m+bIAiCIAiCIAiCIAiCIAiCIOoWtUiqZl1P9Z577vEfibytW7fOe9/73mfudyK/UInlm2++mcEBqLUPfehD5u+bIAiCIAiCIAiCIAiCIAiCIOoWtUiqsp5qtfzyl7/0rrvuOu+aa64hhhQ/+9nPvIMHD/p7HKifO+64wzxHEwRBEARBEARBEARBEARBEEQdoxZJ1SzrqZ566qne3r17/UcCAMpw/PHHm+fo6MLeBEEQBEEQBEEQBEEQBEEQBFGHOOuss/we8MEMNal61VVXmZ3zVmjNT0qmAkB5li5dap6fP/vZz/pbAAAAAAAAAADQTkNLqrKeKgDUy7hx48zz88aNG/0tAAAAAAAAAABop6ElVV944QVv9OjRZgd9NI466ig67QGgRHfffbd5fj7llFP8LQAAAAAAAAAAaK+hJVVZTxUA6mPixInm+Xn9+vX+FgAAAAAAAAAAtNfQkqoLFiwwO+itYD1VACjPj3/8Y/PcrHLAAAAAAAAAAABgSEnV119/3TvrrLPMTnorWE8VAMozefJk89y8Zs0afwsAAAAAAAAAANptKEnVl156yTvuuOPMTvpoHH300d7zzz/vPxIAUKRVq1aZ5+YPf/jD/hYAAAAAAAAAAGAoSdVHHnnEe+c732l21EeD9VQBoDxTp041z83333+/vwUAAAAAAAAAABhKUvW2224zO+mtuOKKK1hPFQBK8NBDD5nn5X/4h3/wtwAAAAAAAAAAAJJ7UvXAgQPerFmzzI56K1auXOk/EgBQpM9//vPmefn73/++vwUAAAAAAAAAAJDck6o7d+70xo0bZ3bUR2P06NHeCy+84D8SAFCUtWvXmuflww8/3N8CAAAAAAAAAAAEck+qPvXUU51OeauzPhqnnXaat3//fv+RAICi/Mu//It5Xv7Od77jbwEAAAAAAAAAAAK5J1Xvueces6PeigULFviPAgAU5cknn/T+43/8jz3n5Pe+973+FgAAAAAAAAAAICz3pOpVV13V01FvxciRIzvlJwEAxZoxY4Z5Xr7lllv8LQAAAAAAAAAAQFiuSdU33njD+9KXvmR21kdj8uTJ3p49e/xHAgCKsHHjRu8//+f/3HNOPuyww/wtAAAAAAAAAABAVK5J1T/+8Y/eZZdd1tNZH413vvOd3vLly/1HAQCKMnv2bPO8fO211/pbAAAAAAAAAACAqNzL/z7yyCPe+973PrPTPohrrrnG+8Mf/uA/AgBQhM2bN3vvete7es7J+jcAAAAAAAAAABAv96SqZqs+8MAD3hFHHNHTca9k66233uq9+eab/tYAgKLMnTu357ys+L//9//6WwBAve3YscNbsmSJd/rpp3vHH398pzqKznNql06cOLFTUWXFihUsQQEAFaNB148//rh3+eWXd87XQX+CzuM6n+u8vmjRIu/5559ngDYAVADtbgCovoMHD3rPPfecd8MNN3innHKKN2rUqEP9wccee6w3depU76abbvLWr1/vHThwwH8UkuSeVA28/vrrnZsi3fh897vf7fz37373O/+vAIAibd261fubv/mbQxfOIP7iL/6CjikAtaYBfZqJf8YZZxzqzEkKbTdt2jTvySef7DweAFAO9Ruov+Coo44yz9dWaFsN1qZ/AQCKRbsbAOpBfb0rV67sDHqxzs1WaELklVde6e3cudN/FsQZWlIVAFAdX/nKV8wLptZYrQolfs866yxv/PjxnVGtXMSH56233vK+//3vd8rxJ4VGHus7IezQqL6XXnrJ37Momqqf3Hzzzd6IESPMc1xSqJPnwgsv5HzTYBqZq1kUwfGqijppO/SU7PnWt75lnhvDoRtPPXf0/EC8Heeccw4zVQqmhKNmfWr/n3baad7GjRv9v1SH3tOkSZPM83OaOOaYYzqdRTrO86RzxA9/+MPOTCvFsmXLcn+NqtH1dMGCBZ3fi9p+mq2A4VFyybqeROOCCy7oOpcSvXHffff5exXDRrsbSQZpd+ue+rrrrjPPheG4+OKLO9fm6LmAeDtuu+02BjAM2WOPPdaZ9Rns76pVZd2+fbv3hS98wTwXpwlVHNCgx2F8rqrvu7RIqgJAw+3atct773vf23ORfMc73uHt3bvX36pc6lTTBTV4bx/60Ie8TZs2+X9F3l577TXvpJNO6vo9EP2HqnKgePv37/dmzJjR9V1oFKZmL61evdp76qmnOmv962ZAN/Wu0fRjxozxnnnmGf+Z0RS6QVMpo/B3P2/evM7AkjRUZvToo4/u+q0Q/YW+g1WrVvl7FkV49dVXuxKW+i3rnFiFTja9B52nw0sGqZP+3HPP7SRI9D51DlfCVIlh1yxW/bauvfbaXDtkVPrsiiuu6HoNnUvq2umTRNfTiy66qOvzqlMcw6PfdbC/icFCgwCYtT58tLuRZNB295133tn1OyH6j3Hjxnnbtm3z9yyG4fbbb+/6rasdpfNkFej8qvNs8N70PnVevvvuu72HHnqo83fdl6kccNIsVp338/5cVd53WZBUBYCG02i+8EUxiC9+8Yv+FuWxOtVUbuJnP/uZvwWGgaRqvqEZQHVsBNaZOs++9KUvHfoOlCxImq308ssve//yL//S9d2FQ4M5tNYImsHq/NNvJkvHK0nVfGPOnDmpO9aQD53TdG4LvgO1sTTrsuzEqtp5ei/B+zr//POdM5fUUauOoHB7MRpq7+a5pEX0OqOYO3du45I3qhQzZcqUrs+Z975EL5Kq+cXhhx/eSehheGh3I0ke7W6SqvmGjlEMj9pJ0b5W9QuVPRM/2vZXMvXFF1/0/9pL5/E1a9Z0JWGjkfVYTlLVfZcVSVUAaLB9+/Z5H/jAB7ouVkFoBkOZ1KF3//33d3Wq6b8ffPDBSsyiaDL9Lj7zmc90/R6I/mPkyJHe2rVr/b2LYVNSRqOeg/2vGwAlv9JQx/xVV13V9f2F45Of/KT3m9/8xt8adbV7925v+vTpXd+tys9mHfygDsGPfexjXc9D9B+6wd+yZYu/d1GUaAJTI8NVYaGspJkqkQSdPXovOp+nfS9PP/10V0dROPRcmiGVZxtS1wNdF8Kvo3OLzjFNoFKLKqEY/ny6RjZ1Rm6VqIRqeL8Tg8X8+fO5fxwS2t1Ikle7W5UqwrPXiMFi5syZXM+HzBqAp3ZVWctDKSk5efLkQ+/lvPPOS50M1SC7aJs3HEUMXixz3/WDpCoANJjWRgpfpILQKKAyWQnVYXSGIZ5GsGWZgaXOH81wrXKoEfn44493Zj/rpkxrsmgmgNZrOPbYY83PlVfQmVOcdevWHTp3HHnkkZlnJ1gN+HBorWluQOvL6tgZpNNOA300cCL8fHFx2GGHdWbTWeenKoX2hUr06Vyp96ub5GB9qlGjRpmfLa/QLEkUS9cmta/CHZX67zISqzq36hwbvA/N/Mz6HqJJ4nDo33WNyFN0xL+iCYlVK6Ga90wExNN+jl6rXPG5z32uM9DHOqdXKXS86NqisoK33HJL5/qi8rxjx47tex3ONKFOZNbtHg7a3XDJs92t9kC49H5SnHjiiZ0ypta5qEqhAYU6LyrU9tJ5UceESvTGtWfyCAYzFsMagFdGclDt/RtvvPHQe5g2bVpnMkUWVps3CN07LF++3N8yH1XZd/0iqQoADaX1oD74wQ92XaCC+NWvfuVvVQ6rQyzvkU9wszpZXaHGlRpZdabPrHWE9Tn02S+44ILcEgisW1IMdbpo1G2w37Os0xOmEjhxJW6UQFMJHNSP1XE36LlL1yVdn8LP6YpBErhVoTJQ6px+4oknOp0/2qeusqtZgrXvymH9jssYzKaqDsEgBR2b/ayfH+00isbZZ5/tvf766/7W+bDarXVOQFqdWE04d9WNq/MyGmUcr8OgY/OVV17xHnjgAe/KK6/0JkyYkPpexBV6Dtbtzh/tbrgMo91tXZ9c0YQ+JPXb6XMr6Xr99dd3SvLnNQhF7XgMn3U9L7pdpQR68B7UZtUA2n4ocRp3XT755JO9HTt2+Fvmowr7rl8kVQGgoTQ6OHxhCuLTn/60v0U5rIumGo6MLi5edMZIUmgUeN3WOUhDiVbdxJx77rl938DQmVOM6BqXmoGsdUJ++tOfOtd1ikrqlKdcUv3EJY3yGFGr61N0zUFXaE2pvJM6ZdMxo9H2qgKgY67fTnDNctGsAhTP6vxUp4sqhxSRqNFrhGeg6LU1IOnqq6/O3LZI6qDPuyS/3rs1EO2yyy6r3bEe9zvIe4Yv0nF1XkZjkE7SKlNCQaW9r732Wu+oo44yP3uauPTSS1m3O2e0uxFnmO3u8OzopNBrLlmyxH9kc2j/qq1z6623escff7z52dMEgxmLYw3AK7KySXhNYvVpqULEl7/8Zed6qpak+95hVB0qe9/1i6QqADRU3Aw8zTwpizXycNDRjBhMG0eDuqhzVB3MkyZNMj+/K2bNmtXpGMLw3HPPPea+1w21SjBn6UxTYkcJHuv51IGUdr0olC8u4ZHn+coaEBQXeh9NmFHkonJS+oz9dPRoaQKUQ+slqZMl/H2oE0OdGcOmAUynnnpq12sHoQTpCy+84G+ZTOd6JVCs51IoeZv38adzicoVR1+rTu0ivU+rE7zp56sqs74TV9Rl9ka/lKhTglXrwGUd6HjcccfVai22OqDdDcuw291xzx8XTe9P0v5QYkzLGqVNNgehgWbr16/3nwnDpO9p4cKFPd9BEZVN1AelvqjoaytUbSjrgCzNcLaeSzGMijBl7rtBkFQFgAaKuwjqRrws1sh4OnKqwRoZFhf6zlasWOE/srn0m9y8eXNnxlmWGzrWLRmuq666ytz3iqwz4Pbv399ZX9p6LoU6klAP1jks745nnROydPD0s+5YHakDfMOGDZ2ZK9Z+sIK178plrROs9Yu2b9/ubzEcSpqOHj2663XDkXWW2cqVK83nUSh5qyRu3rSPouuQal9qn1Zd3Dms6h1WbZB1gGM/axHXkQbv3HzzzZnKz7Nud75od8NSRLvb6jtyRT/rR9aRkll33XWXd8wxx5j7wQoNgKC/rRj63VrrpS9evHio34Huq6Lt03BknbGse9jDDz/cfK5hDWAqa98NgqQqADTQhz/84Z6LkeLhhx/2tyiWOsm0Bkv0/dCRUw1qpLhKMkWjTbOLtW+UMEg7c1VlVzA8GqFr7fcgsux/fbcq3Wg9j0IdSag+rckYnUE6rJl3WUumN31GUZiSq0pypenkUVKniSUs60LJmHAZ3iCG3SaLlpGMxkknndQpMZ3Wxo0bY0uFKnmbZeZrFlZSug7tIh1z0U7wNrXnqi5rucs2DUpVefALL7ww1aCmYcygaTPa3Ygqst3tKvVvRZ0qRwxK7TVVfkkzo19rV+/atct/JIZN7apoe3dYx0hA7We1o8OvGY6s1QB03dUSHdZz6Vr82GOP+Vvmq4x9NwiSqgDQMOFa+uFQY6os1mjGtsziqQs1zLOMBtUosjYlxJVM0Si5pA4v1i0Zrjw7d+SOO+4wn0dBOefqiztvDXMWT9YZRUpetaWDR/SdXHfddYmd36x9Vy6rDLBCpbeGlajJO6nq6vAZZrk7Hc9WGeAqz5KJO28N8/tGNvoeslRD0LHUpoS49o8GOY4fP97cH0FknT0JN9rdCCuj3W31I8VFXSpH5EmJ56RqMbqurFq1yn8Ehk3XK6uUrdrdan8PQ95JVQ1OOuuss8znUgyrskAZ+24QJFUBoGGsTjLFT37yE3+LYsV15GhmJB051aLOmejIU1do9nHbOsU1M8bVoaMyKQwWGJ64QSNBaKZcFq7nY7ZDtcV1QGtEuzoYhilLB4/e35IlS/xHtoO+G82KcyXQTjjhBO/VV1/1H4Ey6HcZPX6GOeBNsyQ0wC/8euFQWUiVh0wrqQNpmLOhrZk6iiomKdXRba3ZOWXKFMpwV0xcwiIuVEpdgwvaROeIiy66yNwfQdx2223+1hgU7W4Eymp3x13D4kLXZl2j20SDv2+66aae7yYcc+bMYTBjgXRt1jU6+j0MawCCzp06h0ZfL4is911Jz5d1QE0WRe+7QZBUBYAG+cEPftBz8VHoIlqGuLK/VR1pBK+zXqqrQR6OKpfiGKbdu3eb6z0Ewbolw+MqA9VPBzGdO/VVZlJDz2+Noo0Lvc82ltjUejuu9X1Y+65cmlWp2ZXR72VYMy513MQtNaB2x/Lly/0t0ykzqRp3DqhiFRar7K/2dxvWx6+juFnkcdGmcpcBfd5FixbF3q+wbnd+aHcjUGa7O669EhfDXs6givQd3H///bGDPvXdbdmyxd8aRbD61YbZ/lI7Ou66mHVCS5lJVSl63/WLpCoANMjHP/7xrgtPEGV1XMatD6QbYVRT1tGgbU2Q60bNKv+nYN2S4dIaHtF1G7XmbT+jkrUWTfh5wqF1n4bdSYD+xK1tqlKg27Zt87carqwziqpcGnSYNNpYMxCtfUIHavlUDs7qgBlWZ4mOm0suuaTrNbUe2K233po5MaSk/XHHHdf1voPQWquqLDFMOtdY5Yer9LtWwkOJj+h7ZKmCastaDaGNCXK1z3R/a+0n7ZNhDqpoG9rdqEK7O2tFrSpWjijCo48+GlspZtiJMHRTO0vtrej3cPLJJ3s7duzwt8qP2tFqT4fX2dX1UO3urG2+vXv3eqeeemrX+w7HmjVr/C2Ho+h91y+SqgDQED/60Y96LjoKdTiVIW50U5GNb/QnruRGXLRxNKjoM1uJVTVeWbdkuLTm0hNPPOGtXr26sz5IP7M0NJNepZCi318QlI+rLt3Iad2k6HdW9ICduFH7cdHGGUUSl1hl7bvyxXVaDLOcnzo5t2/f7j300EOdxEe/M8o0I1Ql96PvXVFUeWmdc6KvrTZA1lm3w2LNCqONUn1xlX7ioq3VEFyJVdbtzhft7narSrvbWrYgLnReaGNFLYlLrDKgqnhxgxeHuRSa2tVqX6udrfZ2P6+jNrTa0tH3rShquasy9l1WJFUBoCHikmB33HGHv0WxrJINCmap1oMaSurwjn5/Vuh71horVWncFEk3JtZsNdYtqT7X+n7qOFi7dq2/JaokrgRYWQN24q51VrS5gydufXU6UcsX12lx1VVXVfo65iojOXPmzM7MmmGLm61ahZH0cWVk6VStB8pdpqN7D2udR9btrh7a3fVUpXa3kvlxlaKsULtT7c82sioeFJUMw9viBi8q6a0BKlWlpGzc/W1RJfbrsO9IqgJAA6hDLHqxUYwePdrfolhxje9hznxAvuI6KeJCjXaVe24jK1nAuiXVp84ba9S1gvW4qisuiVnWqFV18GQpmd7m66BVuo1jrXza/9bAvCp3+ChhqsRp9D0HUdSyFzrnaB116z2UWWZP78ta81XnzqrMokWyrOUuqzR7o0hx12HW7a4W2t31VLV2d9wgvbhQ2eIiBllVjb4bqy9HbZY2XifKpGtR+DsIoqqDF/X7iGvbKor8DVV935FUBYAGmDp1qnmx+frXv+5vUay4xjeNuHpRCecZM2b0fI9xwWjQ7tGgdOZUV9LNAjPqqyluwE7ZgxgomZ6OjrtoBw+zU6qhbh0+Ot7jkk1Fz56Jey9lzlaNm6VK4qJ+KHeZjpVoKWrGOpLR7q6nqra7NYsuet8dFzp/UlHr7f1BO6B4dRu8GPd+FUUv3VL1fUdSFQBq7uGHH+65yCg++MEP+lsUK65MA+VG6knrMEycOLHn+4yLK664opVrBqrTObr+FSX2qkszBTVjMPx9BVGFso2wxZUprUK5bc0o0g1e9L3FxeLFi1vZwWMN1mHtu/K99NJLnTX4w9+LouyOU4uOG82Qib7XIIqeIaq1BmfNmmW+l7IGV1lrvSoot10/alOrbW19n1aoza62extFEy2s210dtLvrqartbrUD1I6Ovq+4UPu8jetOy6ZNm7oGfun71PeKYi1YsKDrNxlEFSedqKJJ3GCuMgZbVnnfkVQFgJqzEpgKXXzKEFfahwRTfVmzMONCDTCNqm+j6MwQOnOqydUh3+ZZHlUXV+6zKp0D+l1lLZmuDuA2iq7ZXdZ6uHibOkiU3A7/RoOoWoePq3O+rFngcR3PZcwIiRvVT5ukvrKWu9TAFQ1gaRtrvUVmQJaPdnc9Vb3dbc3CdIWui6os0zY6/qLLATCYsXhqf4XvfYKo2uBFtSGnTJnS8z4VZVWlq/K+I6kKADWmNSyjFxfFBz7wAX+LYrk65cpcWwqD0fcanYXpCjVw2joaVL/z8L5gVkj1REfshkNrcrVxpnUdxN1QTZgwwdu1a5e/VbkomZ6Orika6RzeFytXrvT/irIoyW8lBquU9Ha1R8pse+gcpHNR9D2V0fkcl+A9++yzW5loawrKXaajcoDhqhGnnXaat3//fv+vKAPt7nqqQ7vb9duyoq2/N80E14zwYD+ccMIJ3quvvur/FUVQ+0vtsPDvMYgqDf6JW3KgzAEwVd53JFUBoMa++MUvmheXq6++2t+iWHHrSlV1vQCkp9Gg06dP7/lu40Lrr2gdlrZRx7M6oIP9QGdOtVizGII477zzmE1fUeoYjluLS2URq9RxnLVkun6PbezgiXbWVaGEc9vFJQYVVVkjPDrLOYgjjjjCW7Nmjb9V8XQOiivRWuS6jnEzixQMbqw3/caylLvUcdLGZVeiA3xZfqZctLvrqU7t7gcffNCskmaFkkUrVqzwH9ku0WUBGMxYvOjg+yDKqGpiiVuPf8SIEZ1ka5nHfVX3HUlVAKipp59+2vuzP/uzngvLe97zHu/gwYP+VsWKW8OJ0fHNoBkgjAZ1U2NTs1NHjRrV2Qe6yVu/fr3/V5RNN9LW6MuySkYinehghSD0XVaxhG7WkultnFGk5M9ll13WSYZpP2g9T63rifLoN1iFxGAcDdTSgK3oe6tK+ci4mb5qNxVVnixuZhGDG5sha7nLtlZD2LBhg3fiiSceOh7LWhIHtLvrqk7tbvU1qM8h+l7jQtfkNlbUUhtbZV2VINN+0FrwWhMexYlWUghC/UVaQq1McQNgqnKfWtV9R1IVAGrqX//1X3suKoqvfOUr/hbF0o1R3PqujI5vDtfC9dFgnRxUSdygADp2qi+unGWVSpCF6cYzbv0wK9rawYPqiUsMlp2Ui+s0rVI7wzXTt6h2MIMbm8+1prAVlFdFWWh311fd2t2udSCt4DeIMrjK2JY5A1yvq8Rp9JjX/6/KwN+q7juSqgBQQ1o/wmroHnbYYaWVXFVpJZVYir4nyi41S9bRoOr4UQcQUCbN1NCMjejvk9Jj1adSfioNG/3uFFUuGavfVZYZReoMqkLpJ7Sb1tjSWlvWb7SsAXJxnT1ll/yNcp2rikhqaqkBLTlgvT7ruzdL1moIGhAJFIl2d33Vtd2dtaKWBj9WIVmEdlF7zPo9ljlgwWpTVKHkb1QV9x1JVQCooYsuusi8oKihW5a4i9ypp57q7d27198KTRB3oxwXjAZFmeKSWyo9ysyd6nMlee655x5/q2rK2sHDjCKUTaXgVBLO+n2WNdvR6uzRcVXF0vo6J4XfZxBFzPSNG9zIMgTNk3WAI9UQUCTa3fVW13Z33ACsuKCiFsqg9pi1BrB+t2WU1rbuVXVs3H///ZUbdFC1fSckVQGgZl555RXvv/7X/9pzMfnrv/5rb/v27f5WxXKNjtcNFKMAm2fdunWpR8krFi9ezO8AhbM6HtXwvvnmm0le1cTKlSu7vr8gjjrqKG/jxo3+VtWVpWS6bhQffPBB/5FAOeIGyZWx7q3V2TN+/PhOxZYqiktsKobdGR33vWldvJ07d/pboSmylrucPn06AxwxdLS766/O7W6t/T579mzz/VsxceLE0vrP0E6uQQtFr/9tTZTQIMBHH33U36JaqrTvAiRVAaBmlKS0LiRf/vKX/S2KF7dwuKLqM4nQn35Gg5Y1ggztZP1G9TtctmwZCf6a0PekdVLC55Ig6lIFoZ8ZRVVNGKEd4kaCK9TZWhSrs0cD+KqcINQ5Seem8HsOYphlE11rTWnmsWYgo3myVkOYN29eZUt3ov5od9dfE9rdWStqzZgxgxnUKIyrIozauJqsUgSrokCVBy1KVfZdGElVAKgRdSS95z3v6bmI/Pmf/7n3wgsv+FsVL67cGeupNltceae40A2ObnSAIkRLRmr9vdWrV9OxUyNlJSjyRsl01IlrJLg6W4s4h1rtC3V8ltFhkoVrLbphrvmkGcSaSWy9rmawopmsJJYr1Cai3CWGhXZ3/TWl3W0tGxAXOn/qPMrvFEWJqyxSxFIRYg34VeWLrVu3+ltUV9n7LoqkKgDUyNVXX21eRNTxVBY1QONmz1JyrPnU+Bo7dqz5/Vsxd+5cyj9h6NasWdPpzAl+d5rJwZpy9aMyYyo3Fj6HBHHHHXf4W9WDBhgdeeSR5mexYuHChXTwoBSasXHWWWeZv8siRoIroXreeed1vW6d1uLTuSn83oMY5kBDXfOs11Tob2gutanVtra+eyvUZq9DxynqhXZ3MzSl3a32s9rR1uewQu1zJgKgKK4227ArwqjNoKoV4cFYWh5g9+7d/hbVVua+s5BUBYCaUCdW3DpNZTYCXSMalex94403/C2Lo86CW2+91TvllFM6ZSwUU6dO7Yxsevnll/vuqFZHn0rYXnvttV3PrdCaHBdffLF33333ddY5apOso0GXLFniPxJVEfy2r7/++s6xEv5dX3755Z2/Ze3Q3rFjR+e7Pv3007uOFY101sj1YXWQR8vh6TUpp1pPcVUQdB557LHH/K3qQdcdSqbXn67vK1as8K688squdoD++4YbbvA2bNiQaeCQfhdql6h9Yp17H3/88VIGIl111VXm73L06NFDrYyizxoePa/jpW5r8encFHecL1261N8qX1pLynq9YX9fcbSuna7zM2fOPPSbVgx6/T948GBnVq7OpbrHCD+3Qu2NW265xXv22Wdr9ZsZFOUu60W/TV3fdTyEf7/6Tes+ct++ff6W9UC7uzma1O62Kl64YvLkyUwGKFHTzosuapepfWb9DtX+HhbrXlSDsnSs1EVZ+y4OSVUAqAl11lkXjzPPPNPfohxVurCpg0AdSyNGjDDfTxDTpk3zXnzxRf9RburA0WLtekzaznCFOkeffPLJvhO4daJSQBrxZu0HK3TjrRtwlEu/zc2bN3dmBCUdMwoleXR8JTW8dUN64YUXJh4vGtGupGueHZ/RjkUlJtQBm9Zrr73mnXTSSZ3Hsg5d+cpK7AyLrlHqzLY+kxWUTK8GtQOULE3bDtAsD53blFhyUTtEz2k9RziOOeYY78EHHyy0PaHkn/VeFMOa+Rjt7NH/Llq0KNM14s477+w8VmvCljVLytUu1ozbvL9HDV6M6zjWNbDogX5PPPGEN2nSJPP9BKHrv77rpGMkoGuzkutxM6is0GvoMXXqLByEOqMpd1ltupZoJo3O6db3EoTa5Gna21np+9b91yWXXNJJVuhe9e677059HFpodzdL09rdSu6HE/5JoUFdbRqQUwVNPC8mUbtM50rrc6pSzLAGPUUnQmStAqN2RvBYDcAoQ1n7Lg5JVQCogd///vfe//gf/8O8eJQ9atBVgqHIi61m8p5zzjnm+7BCdfeVLI2jBpY6UZM6hlyhTguN/qr6GmB5UANXpUOs/WCFOpKbNOKwblTiJU3i04oxY8Z469atMzvjdEzp2LIeFxd5jZBUx47WAwmeV/+dNSEVLnulGzeURzdFcSVIVR1BVRLqaPv27bE3g1ZQMr1cmkWaJvFphWY9aOBKlM6dy5YtS50AUehcXeSMTddsy2Gs0al9okR0MMBH/6v/b11n4mjbYDkKrS+apWM/T64On2GUT9ZAJi23Yb1ekUkK7X8l/7P8rpOu//pbmsGSrlBH7c9//vNMv6U60udbvHixuQ+soNxlsdSm0ZrUWdrd/bRj4+j3ET7HhqPfRBLt7mZpartb1yUNtLI+VzR0fKoaCYrRxPNiGq7BcCeccIL36quv+lvmJ1yiXftbEyKyfr5geYsyBy6Wse9cSKoCQA18/etfNy8c6pwpW9xi4bpYF5XwVYMsOvtHjSOtG6SI64yJmzGp51MZ1LgGnjqM1IGl0WzHH398YkOwTusUDCJa/ikpGA1aDg0WUGLU+k70W9ZvWr/tY4891txGoWNASYGgk1L/G9eZqufR87mOxUF/C+p4DTewdW7sp4RTeJDIsMo0Ih3dFOnmKPg+wqHvuozS8nnJWjKdGUXF0/5+4IEHutaIC0fQxtC5bdSoUeY2iugALo3IV+Ij2m4In3vj2hVF/hZcsy1Vmk0VKvIUPiai15e0wh3CSmoWPUMzUHSHjxJjccuDFFkxxpopqWMj6RiJu/5rxqseaz1GEbQtFHHHaRB6X/fff3/jz6PRtlBSUA2hGPpeoutEK9Lcq+r7dA08SOv555+PHfTYz3mJdnfzNLXdreuLrjPW57KCilrFaOJ5MYu4WeHDWH8/3Eene4l+Bmmq/RQMXCx75nqR+y4JSVUAqIH/+T//p3nhUCdUmdSpps41672pgaKGyrDpAh8uF6eIzg5xjVA8++yzOx1xAc0i0o1hdDt1cv77v/975+/RThk9Xp2krk5yjcJrQwJx+fLlZmewFdpfZf+G2yY8SjEI3bB85Stf8X7961/3/Ea3bdsWO6M1/P1p5mr093/++ed3Hh+m51+1alXPTbseq+foh8rzhBvXgwxiCAaJ6PPWbe2gpnElCrTWZJ3pGnLjjTean80KOniKpe/HGrmuc+dNN93U6WRRcjSg7dXmiJvRGv7+otdI/fd1113XU7lB7Yrvfe97PZ09GhCTdvmCQYRLMkYj7xkrTz/99KHOHl0L+k1+hTuEy+4A1jkqvM+CGMbofpXNs15LoXLIRVBiLlwCVMfO7bfffqh8njo/46qZaJ+obRLQsXXXXXf1tCn0nOqAXbt2bc/s2+AYVNm+8GPCoWOpDedRnR/iBs5ZwQDH4YomHxX6Ld57771d958674W3CULXiDxmzmkWqPX8Cg0UzpIQpd3dTE1ud2uQVXhWdVLklbSDrYnnxayC5SqsyLPa39atWw+1z7Tfsi6rEVCVlaCPtMyBi1LUvkuDpCoAVNy3v/1t84KhhmHZwhfXaKgzTp1ywxbtPNBFXonPMNf7VONCSR7RuhvRUfEqG6YOq3AHqkUdOtHkbjgGSRrViRppWUaDFtVBDHt2nJIASftf36kGBYQfF8TJJ5/cuQkPd6a6GuzqiPnBD37QGaQQfh5FP7Ofor83dbj2exOsmzgNstDz6MauiEEhiFeFRMEwWR0KrtA1v8wb2LawruX6bw0uSepc0XcalzjSuUXJtCB5qHAlEPVct956q7mG5DDK70aFz4fRyHP0fnj0vJLW4eRaVpopGXxvZXcAuzp8dG7LU1zFGIX2ybDp9xsdJKKBhtHfteucfvrpp3d+87qmawZFP8efRJO70Zg9e/ZQ10mrCqu9FxfavxrsgfypTasSi+H9rftUqzS5K6E1c+bMgX63rvtgRZZ16Gh3N1fT293h9kaa0HXNap9hME08L/YjvD5pNPJq54fbRBqYlnVZjbDwrN7opJSiFbHv0iKpCgAV95GPfMS8YPzkJz/xtyiPOjji1nEadkNE1CiYP3/+oddUx4A1ak3bBeUqrNCaU88880xPQvWiiy7qNLjSUoe3ZsmGnyMcl156ae4l86ooqVMrGowGHb7ojaSOlWuvvTb1zciWLVtib0Sjs8DjZj1o0IJrjeKsAzF0XIeTH4OuzRr+jEUNCkG8YN0WKwZJvFRJ1g4eZhQNXzQZoU4InWeSBlYFNIvOqoyh89Rhhx3W9f/1vFbnhmbraEBX+PHhKKIzw1WJRIlerYM3qHBbQR01rnXuk0Tbg2V3ALs6p3Vuy4urfZvX95Qk2j6IWzM/vHZiNHTM6HcfTajqd6HOM+s4iaPS0eHnDofWEVV7v+miia+k0PfXhlm8RYteT3S+06whi+v4GHQgi6vEpSJtmXDa3c3W9HZ39PebFDp2g4pMyE/Tzov9ciWM1a7L0u6x6NwcDN7V/u5nWY2wcNuq7IGLw953WZBUBYAK02gi62Kh2WFV4GqM6CI+7NJr0Y4cV0djXCk2hTovw+tHqrHdb2mMuBr/irJLZRRJjR11Xln7wQprVgPyYZU8ypqc0XEVrFXnCs3SsjpY0pSj07kk7Sh1/VY0wyu4KVOyVv9/9erVmeO+++7rlN8844wzDr2XskdgIv6crfNzk0rEaSBQ2g4eJR5Uzh7DET1P6XuJS3zGcQ02C0fckgBWKfVoFNX57Go3DToDUqUig1m9SjZrHXvr/Jwm1F5TCftwe7SIGZourlH0eXZG6ToVzPSKRhFrXunYCCezo6V8w5I6MHVvEz4Xxs1cSeJaD1jRlnUbldiOK0luRVz7Df3RtSA80Fbnddd5yXXOyNI+tqgcovW8QaSZPU+7u/na0O5Wu0uDAazPaYVVAQ39a9p5cRCuNtGg50M9NjzgToMkrXNxmtB90JVXXtm1dFPZAxeHue+yIqkKABV24oknmheLomvFxymq0yiOOtKC11ODPyjja3F1Doajn07UMFfJt0Ebf3Wi/Zd1NKirUY3+6HuIluXrd2Zw0jGk79Aqca0ZT5qlbT0mHFmOjyyl7fqJokc5opsrUdC082g/M4o06xv50qx9lQYN7+t+Zga7frtBxJW913lZZVCtx4SjqKSqqz0zSIdKePT8MKKoGZouRXX46Heg34P1OkX8TrRuengQQVDG1+LaJ9HQzBXNZO6Ha58oirg/qYqs1RBUkrENFXWKEL5HVSSVEnWV8dYgVa093Q9X1QFF2vMl7e5ma1O7O2tFrRkzZhSapGmypp0XBzGs9lvW+8p+ouyZ62W3fcNIqgJARd19992xF4qqcJU3G3Y9++g6COrUUeeORY218GgtV/TTiRrm6oRs0kjPNHQDohsRa19YMUgnGmzRGcNjx46NLbHjkuYYilvbRKV5wqMb4yJtIzhrJ2E/kWd5RmTnWucmz/UcqyI6cjspKJmev+iM4bgSpkl03Uua1a+ZfVYnkqucVTiKGoWtGX3W6yv6beMV0dmj9qCOqTK5Zkvq3JZlaQkX1/U1z9eJE70PUIdpHFcZv3Do+j5IKVpXZ5uiiEo6VaKqR1kGOFLucnDRwQZJbe8DBw50lqIJfxfhGCSptXfvXu/UU081n1ehv2kbF9rdzde2drcGcqcdJDDogHv8SdPOi4NSJTHNhLZev99jTr/RLJMa+okqDFwcxr7rF0lVAKiouLUH77rrLn+L8g1rFkMa0c5H13qlrhuFcOTRUe3aJ4q2zcZUyZy4Ro8VcSURkV105pUa2MuXL/f/mo1rBHMQcTPo085O0Y2TbqBcso4u7jeGXfIHblUagVoUdVqmncWloGR6fqIl0uNm3aeRlNBRedT169f7W3dzVf8Ix4IFC/xHDFfe1UiK6OxRFJFMTFLUOcx1fR128j060yNpvVLXQMwg8kjqJR2DRQ1KqAq1qdW2tvaFFZS7HFx0XV/XYANRmevjjjuu6zHh0HfS7/IxSYN1dAy7ZifT7m6Hoq5ZVaH2iNrR1ue1QtfZQQb7oFnnxTy4+lb6TRgPu6KAogqDLIax7/pFUhUAKkhrlFgXCV3EqkQde9b7VAx7zaJoORDXzVjS+kqKvDoRSKr2ytLAU2erRtVjcGvXru104Af71lWWL0lSJ6VueuLWPkszO0Xfu6t8d8C1ZnFeoZss3WyhPK4b6UFuoqssa8JJ59Q2Xk+GIdrR4xqklSRpEIlr9LvKaVmPCUdS4ipPrqRqPx1OadpieUQRnWFJXNfMPDuklKAPX+fDMewZmfoM+izB6yUls9Ncv/MYLEJStRflLoujdna4jLtmeG7ZssX/qy1pwMEg57Sk+9Kk+3Xa3e3Qxna3jtUsSxGookzZVTDqqmnnxTy4EoP9nBN1jOpYtZ4vz6jCwMW8990gSKoCaAQlbX7729/6/6/+/umf/sm8SKizoUpcaywOs7M3eiF1JXQkqVGmTmyV/suDa58UPXKqKtRBFl3X0xWDln5D7zqmaZOWcZISoyp3GdcBFy33Y0XaWeJJ67rmEVUYgdl2Zc6+KpO1rqcrKJk+uGhHz6BJy6TEqGvdOL1uuFy7FYMuUZCF67zfz3GYlHDOK4a9/EQa2jdxZaDzbAvmPZs4C712eBCIawZ1moox/Zbcjkr6nQ17v1SVZt9nGeBIucv+RAc6JHX8J5W4HKT9nvTcaTqfaXe3Q1vb3VrfXuvcW5/biiLbYE3StPNiHnR9dS2tlLUvNWlAWV5RhYGLee+7QZBUBVBrSrxMmDChc/Ks2izOfv30pz/tuTAoPvzhD/tbVEOZF7PoaMqkEVOuGbUKdWJba0FmpRkBrhGPScnfJss6GjSvzrW2ih4jGl07yCjjpIEJrs5UnStcM/BUdjNtYqiIzp0i1lGBW97JnDrJOqNo7ty5dPAMINrRE7c2dFrRKhrRiCuTLvoeXeuNnnfeeakGn+Ql707WopKqrn1cFO0b7SPr/eWZVHUl8YedPIy2rV0VY1yzoBRK9vVbcjvqsccei21vKFztlSZLaotFQwM8mD2YXZZKSqLZWq71SjUoUYMT+7Fr165D/SRW6G/axoV2dzu0ud2dtaJWXgPx26Rp58W8uM6vVU2qVqUNlee+GwRJVQC1dffdd/c0gJJq89fBZz/72a7PVNXP5uowUgzzYhbtRHLNSkgaHa/OrbxmRUZLoUWj7TeN2s+uBnI0GA3av+gxMn/+/E6HWr9c5b90g5l0vB88eLBzA3XiiSceepx+C9/5zncKTRKgHvR7Cv/GwtH0zh3J2sHDjKL+3XHHHV37U6WA+5U0sCpNMk0JXZXAD18rdd687777chn8lYUrCUonuJurjawkfty6ulm5StgNM6mqzxeeiZs00yxpYFae6+kPMrCh6bIOcKQaQjbR4z7NYNpo+floDNJ+d5UHV2i2lmZtAW1udycNaIuG2mdU1EqP82I8V2KwzW2VNKqy70iqAqilK6+80jyBHn/88f4W9fToo4+an2vUqFH+FtXh6jAadtkMNfyDDmeNqnS9VtLoeFfZ0qySGmlVKJdRNo3uTDtKXt+xkgvILlzmTf87yAyQpIEJlO1C3lydO204j6qjYOHChebnt4IOnv4tX7780DVJJeBUCq5fSQOrqrAOURaupKpGw2tUPGyuNrIiaSBSWq6kqmvA4aD0+bTupl5Hx4+WG3B1QiZVjNFAsDxUpaxflW3dutUbO3asuX+sYIBjemqbhJfeSKqEFC0/H41Bf6/RQUPR0N8BaXu7W9WxVCXL+vxWpF22BpwXXVyJQbXvEK8q+46kKoBaUSmGz33uc+bJM4hBZhmU7cwzzzQ/0y233OJvUR2uDqM8S5sNKml0fJ4lLJJGx9M4yj4aVB0/6gBCeZIGJjR9BHNe1NmrJESTI6+Rva7OnWHOvqqSrDOKKJlevqSBVZqNV6cZxa5zP0lVt6TkXhFJ1aq0OZMGZqWZtZJW0sCGIsv6VRnlLqshaR1tJRb6TdwknYPynDFfVbS706Pdnb2ilgY/UiUmf206L7oGnNFv6FaVfUdSFUBtPPTQQ97o0aPNE2c4Tj75ZP8R9bJhwwbz83zwgx8svORbGnVJqhY1Oj5pVgKj49+Wdc1AzYYgaVeepIEJw5wN0xQvv/yy94lPfMLcf02K8ePHe5s2bfI/df/o3PmTrB088+bNa301hDIlDaxKWkOqatRhG7c+E0nVZK5R9G1KqhZZMUb71VUNhYoxf9JPucs8ru3olnTNGGTpn6QBBlqTcOfOnf7WzUO7Oxva3dnXndbAlLyu5Xhbm86LdWjDVVVV9h1JVQC18I1vfMP7y7/8S/OkacXq1av9R9ZH3IyUPGdS5qkOSdUiR8cndRqx/lg3JZhdoxDDoZsbblrK4xqYwHeTjqvh37TQ+ruDonPnbVlKpldpQFPbJI1+r+N3Q1J1MCRV/6TIijFJAylZo+xtWctd1m2mfdXpnlD3hta+Vgx6zajSuoFloN2dDe3uP9GAk7lz55r7wQqqNeWrbefFOrThqqoq+46kKoDK+9d//VfzZOkKlYWok2effdb78z//857P8YEPfKCy5fzqkFQtcnR8UqcRnRHdsowGZYR8eVhPNR+rVq1KnRirc+gzao3KQdG587YsM4omT57c6JknVda09VSFpOpgSKr+SVEVY5LaKww66ZW2GoKu7UuWLPEfhTwkde4PmqxJmu3V9CoztLuzod39tiwVtagQk6+2nRfr0IarqqrsO5KqACrrV7/6lffxj3/cPFEmxTve8Y5alVrVgu3W57j66qv9LaqnDknVokbHRxfgj4ZueHRzh276Dam0r7XPglBpHa39hHIkDUzQDPs33njD3xpxlBi79957O8mxJoc+oz7roOjc6aZEqRKm1v4IQh3j6iBHOZI6gvKYSVI0kqqDIalabMWYYa7D1mRKliYln3R9z+PajrclDTZYtmyZv2V2ape71mTXtUrXrCaj3Z0N7e5u2h9J607rGOOakq+2nRer3oarsqrsO5KqACrpvvvu8/7u7/7OPEmmjS9/+cv+s1Xb5s2bvXe961097/+9731vpWec1CGpmtQwy2t9s127dnkTJkwwX0PBbL54W7du9caOHWvuN3XyaDYrM3zLkzQwoekj3VEOOnd6uUqmM/ikfEmj3/NqbxRJ7Ti156zPQ1LVzdVGVrQlqZo0MCvPGdyufaGgvWJTQsZV7pLEQf6GXeIyqXIC96WIot3dTX0PCxcuNPeHQjNZNaMV+WnjedE1+K4Kbbgqq8q+I6kKoHKSEmFp47/8l//ivfLKK/6zVlfcjexXvvIVf4tqKqrDqF9Fjo7XZ3WN8p4zZw6lYRyUDIiOBtX+VEkdRsaXS7Orwt9LOPQdPfbYY/6WQH5cnTuDln6qq7iS6SNGjOjMNGLwSXmSRr+PHj3ae+GFF/yt64Okav+qkFStQkd4URVjkvb34YcfXqsKRkWLK3c5ZcoUEgdDMOwSl2qbu+5Ldb2iygzCaHf30mASq203ZsyYSkweaJo2nhdJqvaPpCoARCh58sUvftE8MfYbWseyyjQa6m/+5m963vdhhx3WmcFXZUmdiGUnVYsaHa+ObP3OrNcIoo4zVIpkJVVV0oiEarmSBiYw0h3D4rrxbWvnjpVU1X8zm798SaPf85yNVyRXUjXPNembSPsmLsl31FFHeRs3bvS3HMzSpUvN11BUIalaVMUY129VUddjsChWUpWZWMOTVNlg0A7hpOdn1jaiaHf3spKqLLUxPG08L7oSg3mtN99UVdl3JFUBVMKzzz7rffSjHzVPikGMGjXK/HdXfOADH6j0SMy4i4FmNtaB62JWdlI1aXR8Xuubbdu2zRs3bpz5GgoST266MdENSnif6QaGUmPlS+qkLGNEJ9rB9dtra+cOg0+qS+0d1+j3Oq6nKhyH/XMlVbVPtW/z4JpdVHZSNWlgVp4zuBctWmS+RhAkkeKROChW0nEx6KzqpEHPulZRZQZRXO+7qW2tNnZ4P7DUxvC09bxY5b7UqqvKviOpCqB0P/zhDzuleq0TouIv//IvO9vccsst5t+TQo+rot27d3t/+7d/2/N+//qv/9r79a9/7W9Vba6LWdmjq4oaHb9q1SpnZ+qll15K6d8Ymo3NyPjqShqYQCclhsXVudPGGXJPP/00g08qLGn0e12rVbhKsTGoxs21NlieyURXUvWyyy4rdRZ7URVjdB48/fTTzddQaC3qZ555xt8aYW+++WbPMg8kDobL1b5R6Lyh80e/kionMNgXFtrdbzt48KC3ePHirv4d/TeVYYanjefFAwcOeLNmzTLfD4Nf3Kq070iqAijVV7/6VfNkGIQSLP/v//2/zrbqvHn/+99vbueK//W//lfn8VWj9SKt9zt79mx/i+pzdSSWuQ5AUaPjlSxV0tR6DYUu6kq6opdVaoyR8dWRVNZav21GUGJYXDe/bVvL0ZrNz+CT6nDNSFSok0idRXVU5VmQVadzlM5V1r7L8xymmRuawWG9Ttmzi4qqGKOEqRKn1msolHBlAEovayYWiYPhSzou1PYeZP+7yrgqGBADC+3uP9GxF11qQ0FlmOFq43nRdf9Q53uHIlRp35FUBVCaqVOnmifCIG644QZ/y7clJWHjYsmSJf4zVINu7o844oie9/kXf/EXtUoqKXEa/QxBlJlUVcJUiVPrfSnyGh2fNOptwoQJ3q5du/ytEbBKjTEyvlpcs2wUZYzoRHsUlZCoOgafVF9Rs/HKoIoj1mdS1LWkcVF27twZuzTExIkTvT179vhbDsY1u6PspGp0BmQ08prBnTRTvMz7kaoicVCeYR8XSccDVWZgod39J9ZSG1SGGb42nhfVPtMscOv95FnRpImqtO9IqgIozRe/+EXzRKiGzJNPPulv1W379u3eu9/9bvNxrlByq0q+9rWvme/z3HPP9beoB1eHW5mzGJJGu+XVGbhs2TLz+YOYP3++c1SdGujXXXedN378+E4nm5L/g4zCqwNGxtfDxo0bvaOOOqrrewrHoJ21auwqaavfvpIOmzdv9v8CuG+W2jJ6l8En9eBqBykGHV3/6KOPdtoHOlfOmDGj0I7Nqg6cq4Oikp2u5G2ZHeFFVYxRcnry5Mnmayg0CGXLli3+1rbHH3+8M9BXx5i+mzYMGCNxUA4d93GzaxSDHhdVXTcQ1Ue7m8owZWnreZGBDP2r0r4jqQqgNM8++6z393//910nQTXmkqg8bvgxaeMnP/mJ/wzl0joN//AP/9Dz/t7xjnd4TzzxhL9VPbhKaZS5llMRo+O1DtHMmTPN51doHTKtR+YSXa9s0M7XqtNnY2R8cbS/dYN4ySWXdDoLFSqDp840nYdc7rnnnq7vKBpas3gQ4TWP0xwraBfXDbCS/Ur6NxmDT4ql86GSl7qmB+dK/bcG+CXt76T123Uu7Vd0zSDNiNXM2KK4RvaXvW5+1bnK8ubZPlZSUUl363WUbFXStQzqAFVHqPW+FHnN4F67dm3sur8KHT86juJEj7E2JA9IHJQnqQoM66miLG1vd1MZpjxtPS+63pf6xPMafNdEVdp3JFUBlOpXv/qVd+KJJ3ZOgN/73vf8f3VT4yZ68kwT//zP/+w/Q7kWLlxovr/p06f7W9RHFcuOFTU6Po81nMKdseowb/oalYyML46OPSXprUEPSckZrRU8Z86cnseFY5AO9ejNE508sKjaQfg3F44mnyt1XDL4pDi7d++O7UhMmhmc1N4YtCMyWlo4r0RUWnHHIANhkrnWox10UFKYa4ZHmQnCIirGqK1y6aWXms+v0Dl01apV/ta26DFW1r1LUUgclMs1u0aRNAggSXSwbjR0rSt63UDUR1vb3VSGKVdbz4uuftRBP3PTVWnfkVQFUAlZ1xY688wzzZNoUlShEyg6OjiIX/ziF/4W9eFqBOW5ZlQWRY2OX7Rokfn8QSSVxouWLNOMgm3btvl/bR5GxhdHHY3z5s3r2tfRcP3e9O9x5QQVg86Wis4sUaeo3jMQ5io9unTpUn+r5mHwSXGUPFFJ3fC+joZrgFTS4KpBR9dHlxhQu6MormRdXoPTmqzI81dcR7iSimWV+iyiYkxSW0VLv+zatcvf2lbmMVY0EgflS0oeDLp0DuupYhBtbHdTGaZ8bT0vugbf5bVUWVNVad+RVAVQSz//+c/Nk2hS6GayTHfccYf5vqZNm+ZvUS/qdItbf6Os2WdJo+PzmCGQNDslzewAjZ4Pz0RqcmKJkfHFWrduXU9SJhoqS6jyhBY1VKOz5MIxSKIgWjZbyVUlWYEo11qVTe0YZPBJsZYvX+481ylcbRlXB6RikNHS0YFX+l0krQ2ZJ1c5trIGzdVJXFnoYSQ64+4tFHkkL7NKaiPnVcY6qb2ftKSGkowaNBFsrwESGijRRCQOqmGYyQNda3TNsZ5XMYxzD5qlbe1uKsNUQ1vPi66llpo8eDgPVdp3JFUB1NanPvUp80Tqir/6q7/yXnzxRf8ZivfRj37UfF91XZtKjVGtDWV9prLW30ha3yyPDiZXyQlFUvmwNiWWGBlfrKRyeEHE3UTomJ4/f775mCAGSRToXBeepZqmTDbaSdcPXUfCv70gylyze1gYfFKsaEIlLuJmZSatq64YZBBXNGFb9MAr13pFZZVKqwt9T3El9Icxy9fVEa6Ea9GiJXWjkUfFGJ3/lTS1nl+hNk5Sucpo1Qwdzzqum4bEQXUMM3mg9ZNdM7dZagNJ2tbupjJMNbT1vBg3g7bMRG9dVGnfkVQFUFs//vGPzZNpUlxyySX+MxTrrrvuMt/PZz7zGX+LenKNkC86WVyV0fHqDHWJziRsamKJkfHF0+whzSIK73Mr4jp2o7OjrOj35iaaNFJnZl0HlGD4XDfCqpDQpHXvGHxSvKSlAoKIm5WpWaPRWcXRSGoLxInOWC5jbUxVMlBFg/DnCSLPNUGbyNUWHbQktKVqHeFVqBiTVPpXydPZs2cf2l5t06T1V+uKxEF1JCUP+j1erfutaBS9zhzqp03tbirDVEcbz4uuwXd59Vc2VdX2HUlVALU2duxY84Tqive+973eb3/7W/8ZihPXWCijNFeeNBooOvo5iKJHyCeNjk+aQZqWq+SfEkWutXv1+uF1yrTvVqxY4f+1OdT4ZWR88ZKOgSDiEvnRstRW9JNUtW5s1KHZxFkhyIdmwkUTjUGo00edP03A4JNy6DodnqUWF3EzRJPWVVf0k1S1Euw33nhjpRJjdW+3Dptrlq86gvKecewaTFVGR7irYozObUkzSNNI6oRN6iiNVs3QMiz79u3z/9ocJA6qJakUZT/3qXH3W9Fo6rIJyE9b2t1UhqmWNp4XXQPD8qjm0WRV23ckVQHUmiu55YqiR9nH1X0/5ZRT/C3qy5XEKXqEvKsEmiKvhpPrd5dURiS6hlteid6qYWR8OdLMvtL3YnVqqmN2ypQp5mPCkfW4PnjwoLd48eKu370GxGzdutXfArDFdc6XVV4+b3E3/Qw+GT7XgLAg1Mm2adMm/xFv0zISY8aMMR8TjqwDyzTI5Kqrrup6jrKSPXGltZpy7A2Ta5bvMAYbujoki+4IV3tWiVzrvSjyKrWXlFR1tfejbZ2mVs0gcVBNg9xDWqz7rWgkDfgFAk1vd1MZppradl50Db4ro8JInVRt35FUBVB7o0aNMk+qrlAptSL9n//zf8z38aMf/cjfor6qNFoorhNQoc7TPEbHi2sGhzp51NljiY4YP/LIIzudb01jjYzXb6EpI1yrLKmj8YgjjvBWr17d0+DU/9dsKOsx0VB5YKscpsVKqHLzirSaPlvOuumfO3cug08KkLQ2upKmzzzzjL/126JlQ12RZY1GK6FaVgLElaQbRvnapokbSDnMDry49q+Su0W2M12dXYq8BhK67j0UcbPErcoAOuc2bRCLlTjQ+e7RRx/1t0BZXKXj1VbOUoZa55O45wpHk2YZYria3O62zv9qgy9btowkVsnadl7UewxXywiH2pCIV7V9R1IVQO3dcsst5kk1KYoqTXvfffeZr/+JT3zC36Le1Ai94oorzM9YZF17V8kaRT+j3OK4ZufGJVU1Ky88YlwNxCaWd7RGxlNqrDhxneEjRozw5s2bZ/429RtcsmRJZ5tge92M3H333eZNSdrfrjr1VCo4nFDVa+i1uHlFGq7EV9EVJ/JmDT5hNn9xlBhUgjC8/xUaeHL77beb34M65HQeDZ/TdH3TmvnWiPi0A0jUqRNtv+h9lDV7zlVOlhH0yaLJ8SCG2YGnQYPh32U4iuxkSpoBnlfFGHGVGbaSqtYgrya2T+MSBwxmqwadP12DGKdPn57YDtAgHF2nwu12V+i+QPcHQJKmtrt13EUrw+i/m9gXU0dtOy8uXbrUfE9Ug0lWtX1HUhVAI7z//e83T66uUJKtCNEEUxAaFdcUcaMa1VjNa3ZoEnVUqcPKeh+KPBtOWg8rrtNMs0/Ds1vUSFy3bl1PqcAmlndUYzfaMaykAaXGimWti3rxxRebCVV9Z9ddd13X9kHnm3UDGt5GiQR1Ukbpd61zwvHHH9/1GBKqyMo1G6nOpdMZfFIN0XVRda67+eabzY4btTHOP//8ru2D65uVxAhCnZNqB1nnPf1+dY5VR0D4MWUmVEWdEtH3FAQj6N1c5W+H2YHnmiGqgY9FXXc1YNV6D4q8Z+q6Ov+jayHrmI4O8mpi+9Rqt+m/SRxUi9UGCMdFF11kVoTRteahhx7yJk2aZD4uLuJmbgNRTW13W5VhmtgXU2dtOS/qWqwBitZ7ohqMWxX3HUlVAI3w1a9+1Ty5JsWPf/xj/xmGQ89vve7//t//29+iGVwzN/Mcle7iWsNKkXcS27WmmmarXnnllZ0OnBNPPLHn72oM1PWmJI7VqczI+HLotzVjxoyu70KhpKbWEdNvU9/VBRdc0Om8D28T7XxzJQsU6pRUwlbbKD7/+c/33LQq9DoPPPAAnXrILG42Up7VB4rE4JPqUKJU5czD34VC5zCdy4Lz2jnnnNNzXote36zvNRxqC6hNoOfTOVjnYms0vdoVGzZs8J+1HHED5fQ7VYk2xHMlN4c5mDKuSoWiqKU4lMScM2eO+R4UWZYOSEPtibiZLTq2vvzlL8cev/ot55ngrQoSB/VhVasIR7TNfvrpp/e02dNEmesGop6a1u62jjUqw1RTG86LroEL8+fPp6/EoYr7jqQqgEbYt2+f9+53v9s8wbriU5/6lP8Mw3HKKaeYr6ukRZMoiaPRi9ZnLWpUo2aCWK+vUCelkqB5szovXKGE1U033ZR6jbW6UGeNZvcwMr46kkZ7WqGbEpX8jX5n1vebJaZNm+a9/PLL/rMB2cSVtdS/FVUJIS/qwNH6feHPEU3OoVhJHThWHHPMMZ0yp1HW95s29Hu+8MILvd27d/vPVg6d/+OWdKjzLJWixJ2vNKNSMyuHSbMuoq9b1GuL615AoQRo3m3CpMEMVowfP76R5fW0Xmp05i6Jg2rToGRrYE/a0LVIywy5nmPChAnerl27/FcEkjWp3b1p06bOOT/8OagMU21NPy/GVdmo4/FVtCruO5KqABpj9uzZPSfYNPGLX/zCf4Z8aVaW9Xof+chH/C2aJVpGL4iiRjVu27bNLP+ri+wwk3vqmElTbkSJXZUBblqSUZ9H+zd689XmkfEqv6vPr7j22mu9zZs3+38pljrn1Ukf/W6sUOLTNfBA37NmT2UpraObmYcfftgsEQykFXduVxRVCSEP1qzvYV+fqkyz2r7//e8fOld+7Wtf83bs2OH/tVga9KFzYPi7sULfl86prnUxdb7TTE916ljPEQ095xlnnNFJ7lbhdxC31qxC7Ty4xc3w0WyKYSe3tPSElqCwXl+/ySLE3QsMsxNbAxU18Mua+R0OHWuaLd7EJKM1OKTNiQN1ymtpi+D6onvyqtLvV0tjxJVct0KDsXSu0W85qVKTZo+HS2EDSZrS7rYGGOs8qfNlG2kZIF0rg/Oi1qb8/e9/7/+1Wpp8XtQyGtZ70jGnYw/xqrjvSKoCaAwlBKyTbFJo7aNh0CxY6/W+/e1v+1s0SxU6czQaUR2jQRJJCSDNABp2R6U6UZ9++mnvkksu6awjGbz+scce2xklrs/ftNmpAWu2bptHxkfLklShgbx169bOTfDUqVO7SuSMGjWqUx5Pv920iU9tp3I5+q3r9x08l0Idmjrmbr311k6Soo2JIuRPN71aHy/8WwuiqLKWg9KxwOCTbtEyqUUknVz0HWkE9A033OCdfPLJXdc1nes0e1PtzLTnNV3zV69e7c2cObNzrg2eS6Hn/vSnP935TZSVSI4T1xEVXS8evVxlyYpISOv40XFkvX5RHYj63X/rW9861BGq37rK9BUxA1tVi9QJG27r6PV1POu4bmrFDBIHvdTmDfaFrrsa7Fh1KuGtgYg6VsP3kkHoN63jWzOw9FsPxA1kCIJ1sJFVE9rduh5GqxjoetDmyjDRpR3qMFCuaedFHVv6LNZ7iq4Fj25V3XckVQE0yplnnmmeaF3xZ3/2Z96vf/1r/xnysWLFCvO1NHOhqVydOeqMJMHSPIyM76WOm3CDnwYyMLjocRVEUWUtB8Xgk17RDo86dO60QVwJWUr/JosrS1bkeSquI5ESoM1E4qBXdJZdk2f/uO69FXVpI6F66tzupjJMr+i5oskD5ap8XlQ7TO2x6HvS75PSv25V3XckVQE0imZQRU+0aeLf/u3f/GfIR1zptDqVTOnHsmXLzM9NZ07zMDK+l2ZoaFZSsD/UyKvD6Hig6vbs2RO7No6SQFXG4JNe0e+TWZDV4FoTU+07uMUlpNUuKKpayZYtW3rONwo67JqHxIEtei/a5MGNripRCgbDoF91bXfr3EdlmF5r1671Ro4ceWh/KOnY1IGdVT4vqh0W/W0qdKzpmEO8qu47kqoAGieu7K4rDjvssM46UnlQEsV6DZXCanpjjs6cdmBkvG3NmjVdNywMJgDyoU6S+fPnd51zgqhypyGDT2zR5BMdv9UQN9OSdZ6SxSWk1f4tcnBVdHBXOKga0xwkDmwqp65yz8H+aPr9Z1KJSwbDoF91bXdTGaaX1T6p+oDUQVT1vKhjSu0w6z1RrcetyvuOpCqAxomuF5A25s2b5z/DYKZMmWI+/9e+9jV/i+bSSOC4NTjozGkGRsbbNEIueuzzmwfyEzfyuKqlyBh8YtO6pGPGjOnaL03u3KmTuI4odaxyLXOLOz+VMYI+rmwjA72ag8RBL52jbrzxxq59UpXf/MGDBzuDqW655ZbOPZTOtVrjd5Dzqs4rcTMJFQyGwaDq1u6mMoxt+fLlXW2Cqnx/bTsvRkvTB6HfrCamIF6V9x1JVQCNNHbs2J6TblL89//+3/1H9+/BBx80n1uLqLflRvepp54yG+Dc3NWfGrmMjO9ldeQ0fXQ8UDSdY+bOndt1nAVRtRG+DD6xaRbd7Nmzu/ZLVTvn2kZtVGsNKrXn1LEKt7iEdBnnpn379nnTpk3reS86B7EkQf2ROLCtW7euJ9FchcGNGzdu9CZNmtT1vhQ6Hm+99da+SxOvWLGi534sHLovaXN7A4OrU7ubyjA2ayBjFWYat/G8GDfgrckl6vNS5X1HUhVAI33ve9/rOemmidtvv91/hv585jOfMZ83r1mwdeAqPUYZonpjZLzN2i/MCAHyF10TKIgqrUWjm3UGn/SK2y+U/q2GuGNLSfCi1gOtq7iZEerIVIdmGaLrSgZR5PquyB+JA5u1X3StKXtwo5UAD0e/g1biBk4EocHlW7du9bcG+leHdjeVYWzWflGUXR2mjefFuP5R/U41IAjxqr7vSKoCaKxRo0b1nHyT4rjjjvMfnd3q1avN5/zbv/1bb/fu3f5W7RDXAG/yovhNx8h4W9yNAaV/gfzF3Vip87QqM7AYfGKz9ouC0r/li1u6gc6edOJG0Jc5IyIu0cvM4/oicWCLSxyUPbhRx2DckkDhWLp0qf+I9KLlPMOhf1+yZIm/JTCYqre7qQxjs/aLouzqMG09L8aV0mbgYrKq7zuSqgAa6+tf/3rPyTdN3Hvvvf4zZPPP//zP5vN99atf9bdoD13goiX+FEq0KuGKemFkvG3Tpk3e+PHju/aLQg13Sv8Cw2GV+FNUYQYWg09sjz76aKcjJ7xfFJT+rQatR2QNDqKzJ5n2j9XhXOYs1UBcByNr5NYPiQObEqpx5UnLHtwYN9giGlkHFmmmlWuZIwZxIW9VbXfr+KYyTC999ptvvtk8/5RdHaaN50X9TtXuir4nBi4mq8O+I6kKoNHe//7395yEk0L1/bNas2aN+VxKIm7fvt3fql3i1latQsc30rNGgKsjXJ3kbRaXUFVQ+hcYHnUWWJ2oZQ/asQaf6Byhc0WbxSVUFZT+LV9ch4Xab2rHwS2uMsvChQtLTehIXCk8JdCVSEc9WIkD/bc6zducOHAlVLV/yh7ceNVVV5nvLRpZZmTFtX+CYMArhqGq7W6rAoreZ5sHFbgSqoqyq8O08bwYN3BR77nN1/A06rDvSKoCaDTNEo2ehNPEz3/+c/8Z0vnsZz9rPs8ll1zib9E+KidnNZwYlVUfaqxER8br+2tzqTF1bqmjJi5JoKD0LzBcmt1oHYNlzayzBp+0vXPz4MGD3l133dXT4RUOSv+WT7MpNasy+t2o/aZ2HOLpXGNVZTn55JO9HTt2+FuVS4M+raRvmaWJkY2VOGj7TCwNWD7ttNO69kk4yh7cqMFCGjRkvbdwZCnHbSXXw9H2+zMMV9Xa3VZlmLbP0t6/f7930UUXde2TcOj7K7M6TBvPi3p/am9F31fZ30Ud1GXfkVQF0Hjvfve7e07GSaG1P9N66KGHzOcYMWJE6aW/yhZXioOSctVnNVL13/o3/a2N9Ju9/fbbO8d2+PccDu0jSv8Cw6VzkGaCRY8/3TwXPWiHwSe91Kl1+eWXx3ZyKOhQKJ+OI2uWqtptar/BzZqlqt/8ihUr/C3Kp/OTNYOjCuWJkYzEQTeds3SNtwaChKPswY1pkwdZZttYyfUg2n5/huGrUrvbqgzT9qU2Nm/ebK6jHo6yq8O08bwYN9OyCtVMqq4u+46kKoDGs0aRp4lf/epX/jO4xY2U/bd/+zd/i3az1nRSJ5RGz6O6rEZqm0fGq/Nx6tSpXfvDCkr/AsXYs2ePN2XKlJ5jsMhOA93UMfjkbfrMGzZsiC2NHo6yO3dgzzzR73fJkiX+FogT1zk4Y8aMyv2umY1cTyQOuimRfN111/XcU0ZDfy97cOOBAwe8WbNmme8viOnTp3u7d+/2H+Gme+YjjjjCfB593kWLFrX2/gzFqUK7m8ow3TTge/HixbGJxXCUXR2mbefFuKp9Sn7v3LnT3wqWOu07kqoAGk8X5ugJOU0oGZtEN23WY//qr/4qdVK26eLKo2mdJ633hOp5+umnGRnvU8NNIyZds1PDcemll9JJCRREo+OjHQm6kS5ippgSiA8++CCDT3xK3JxxxhmJHd5BqLMD5Ylrm1UxKVhF1oBBtZuquoay9X5ZN7e6VMbxnHPO6fq+2po40LlKAz2OOuqorv0RF+PGjfO2bdvmP7o8CxYsMN+fPoc+jz5XErUz7r///tiEie5NNIhL5faBIpTZ7tYxE0206L20sTKMjvmVK1d6xx9/fNf+iIssJXWHqU3nRetY0f+nolmyOu07kqoAWuHMM8/sOimniXe9612JI6U+//nPm48977zz/C0gWvtm4sSJPftJI+vaOJunyqxSY20bGa/fpBIEF154YepkqkI3latWrfKfBcCw6VjVdSR6LOp6o+vOMFmz+ds2+EQdFhqEkyWZqqhK506bqQO0TknBKrGWttC+rPIMXw30UEnU8HtWaFZIW0vJVpU1E0vXmrYlDjTw9jvf+U7qZGoQVRncaHUKn3XWWd7evXv9LdyUWNegzrhrq2ZoPfDAA9xHo1Bltbt1DYsutaFjo22VYTTo7b777kudTA1CS5tV4VrflvOirl+aQBJ9f/PmzWPwfYK67TuSqgBaQZ1E0RNzmrj66qv9Z+j16KOPmo/5T//pP3m//OUv/a0QsDqg2zrquqqsUmNt+o527NjRuTmbNGlS1z5IG1UZHQ+0idUBrRjmjNE2Dz5RR8XLL7/s3XrrrZk7dYKoSudOW1kD3dqYtOlHXHKyDjPUrTZeGzulq6ztiQMlDFavXu2de+65mQY1BqF9VZXBjXHnipNOOqkzyyruGqgSq7fffntsWUuFliPRdRgoQ9Htbp37dA6MJtLqcN3Ngz7j448/7l188cU9fWlpoyrVYdpwXtTv1Rp40Naqb1nUcd+RVAXQGp/61Kd6TtBJ8d/+23/zH91LnYLWY774xS/6WyAsrkFMA6MarBukJneyaoaVSvuq8+byyy/vSZD0E5T+BcphJQuGdf5q2+ATdYC88sornZHfc+bMcXZopA1K/5YnrkOrLZ2Tg1LJ75EjR3btuzoNqLAGhLRp8FyVtTFx8Nvf/tZ74oknvNtuu8075ZRTej571qja4EarvRCOUaNGddYgD0L/39ouCF1/9RtJUyITGKYi293WwPwm9x9pcImuyTrWTzvttL4GmISjatVhmn5e1Hd39NFHd71H2lnp1HHfkVQF0Bq/+MUvuk7QaeOb3/ym/wxvcz2XylrApk6B6AhsBWWAy2V9L+rYUAO1rt+LPpNGNSpxqtGdWndE63joJkyzqwbtuImGno/Sv0B5dMMVTRbkXY6siYNPDhw44L322mudTg6tVaOyYtddd11n4Nixxx7b9VnzCEr/lstaW5PBbeloWYAxY8Z07bs6dpRZHdSUAS5f0xIHun9QSUddX3SMaBCjBtRottUnPvGJns+aR1RxcKPaIEqMWO83bShpcPPNN3fKIgJVUUS723qNOg1ksmgwic6LW7Zs6ZwX1d+iAd4aWJLHwMVoVLE6TFPPi+p7mjJlStf7rPt9YlHquu9IqgJolegaSGnimGOO8R/9ti984QvmtlpXDG5N7JSus7iR8RoVqeMlPFKw6pE0knGYMWHCBG/Xrl3+XgVQhmF2SscNCtLraXaMdU6qagyj0yZtnH322Z1R+Cie1TmpDow6d04WxWq76jhas2aNv0V9tHFGZNVZx6ZCA1usc3hVYxiDFtOGXlcDg6pIM6i05nKW9WH1eVTOUutfc81EVQ2z3R03ozE6k7Hqof6UQWebDhJ33nmnv0erpWnnRes+Ud+7PiOTR9zqvO9IqgJoFdXqD5+s08bdd9/tP4PnrV271txGUdWbuarZvXt3Z1R8eN/VcbR/E1g3Q0T2UDlFGsxAuXQM6jofPacNmiyIS0IQ2aOqnTtNZ3VO1n22R1Gszh6dY+o8GFCfSbMGw+c0/XedK5TUVVzigMgWdRjcqOPu+eef7xx7mj0WTb7o32655RZv/fr1JFJRC8Nqd1sDmYjsoVKqOudUWRPOi9Z9Im2qdOq+70iqAmidfmazffzjH/cf7Xlnnnmmuc1nP/tZfwukobKs0bIfdPAVK25kPJEt1PBjQAVQDboBW7ZsWVcHz6A3Zww+ySfq0LnTRFbnpNpbW7du9bdAHKuzR+cCra1ah84eF3VkqnRe9LPVOVlcNyQO8gsGNwLlyLvdrWtTdCAT0V9QHaYY0ftE/f61vNnBgwf9LRCn7vuOpCqA1tEsieCknSUeeuihznqp1t8UP/3pT/1XQFrWjNW8SsbAjZHx+QWlf4FqUSdOdOR8v8kCBp/kF3TuFE/tqfPOO6/re1DJXxKqyXQeUemxcNk+lfzVGmhNSd6o8zo6Y5XKMcUgcZBf6PfL4EagPHm1u/U80YFMRP9BdZjh0zIQ4WVV1GbUb5iEarIm7DuSqgBa6f3vf/+hk3fa+NznPteTAAzin/7pn/xnRlbq8Js7d27X/lQHIInV4dEaFrNnz+7a50T/MX/+/MZ0sAJN8uijj3ZmRwbHatY1EPfs2dNJQIWPd6L/0EwGFMdK2mjgmga0IVl09PyYMWO8DRs2+H9tDrVforOM9FmZVT5cy5cvJ3GQU0yePLlzvQZQrkHb3ZrAEL4WEf2HBkht2bLF37MYhujAW/3eH3jgAfqFUmjKviOpCqCVvva1rx06gecRGpmH/kVLkB1++OHeU0895f8VeVPHw8SJE3t+x0T2GDlyZGedZQDVtGnTps6aPMExO2fOHO/3v/+9/1e3F154wRs9enTXMU/0F3TuFC/8+1X7SuUxmSmczhtvvNFVllVJm5deesn/azNFO8O//vWv+3/BMFx11VWH9jUxWDC4EaiOQdrdS5cu7Tq2if5j5syZnYH0GJ7wdbypA++GpSn7jqQqgNZ697vffehEPkhMmjTJf0YMQjfDe/fu9V577TXvt7/9rf+vGBaV1VByVfub6D+0DynvAlTbgQMHDh2vGsSThbbnXDl46PpOp3fx1J7S/udalV1w3lDov9tASXd+L8UJjk9isGjL8QnUxSDt7uA6RAwWDKIbvvA9Ivs7m6bsO5KqAFrrsssuM5OkWUPlmwAAAAAAAAAAQHORVAXQWhodYyVJs4RKmwAAAAAAAAAAgGYjqQqg1bTWgJUsTRvf+973/GcCAAAAAAAAAABNRVIVQKv95je/MZOlaeKjH/2o/ywAAAAAAAAAAKDJSKoCaL3PfvazZtI0Kf793//dfwYAAAAAAAAAANBkJFUBtN5zzz1nJk1dceyxx/qPBgAAAAAAAAAATUdSFQD+Px//+MfN5GlcfPOb3/QfCQAAAAAAAAAAmo6kKgD8fx555BEzeWrFP/7jP3p//OMf/UcCAAAAAAAAAICmI6kKAL4PfehDZhI1Grfccov/CAAAAAAAAAAA0AYkVQHAd++995pJ1HD8/d//vffmm2/6jwAAAAAAAAAAAG1AUhUAQg4//HAzmRrE/Pnz/S0BAAAAAAAAAEBbkFQFgJBvf/vbZjJV8Xd/93fe3r17/S0BAAAAAAAAAEBbkFQFgIgRI0aYSdWrr77a3wIAAAAAAAAAALQJSVUAiFCJ32hC9T3veY+3c+dOfwsAAAAAAAAAANAmJFUBwHD22WcfitmzZ3s/+tGP/L8AAAAAAAAAAIC2IakKAAAAAAAAAAAAAA4kVQEAAAAAAAAAAADAgaQqAAAAAAAAAAAAADiQVAUAAAAAAAAAAAAAB5KqAAAAAAAAAAAAAOBAUhUAAAAAAAAAAAAAHEiqAgAAAAAAAAAAAIADSVUAAAAAAAAAAAAAcCCpCgAAAAAAAAAAAAAOJFUBAAAAAAAAAAAAwIGkKgAAAAAAAAAAAAA4kFQFAAAAAAAAAAAAAAeSqgAAAAAAAAAAAADgQFIVAAAAAAAAAAAAABxIqgIAAAAAAAAAAACAA0lVAAAAAAAAAAAAAHAgqQoAAAAAAAAAAAAADiRVAQAAAAAAAAAAAMCBpCoAAAAAAAAAAAAAOJBUBQAAAAAAAAAAAAAHkqoAAAAAAAAAAAAA4EBSFQAAAAAAAAAAAAAcSKoCAAAAAAAAAAAAgANJVQAAAAAAAAAAAABwIKkKAAAAAAAAAAAAAA4kVQEAAAAAAAAAAADAgaQqAAAAAAAAAAAAADiQVAUAAAAAAAAAAAAAB5KqAAAAAAAAAAAAAOBAUhUAAAAAAAAAAAAAHEiqAgAAAAAAAAAAAIADSVUAAAAAAAAAAAAAcCCpCgAAAAAAAAAAAAAOJFUBAAAAAAAAAAAAwIGkKgAAAAAAAAAAAAA4kFQFAAAAAAAAAAAAgFie9/8HROyl9C+Q4dcAAAAASUVORK5CYII=;" vertex="1" parent="1">
          <mxGeometry x="1456" y="950" width="493.95" height="85" as="geometry" />
        </mxCell>
      </root>
    </mxGraphModel>
  </diagram>
</mxfile>
